<?xml version="1.0" encoding="utf-8"?>
<!-- Generator: Adobe Illustrator 20.0.0, SVG Export Plug-In . SVG Version: 6.00 Build 0)  -->
<!DOCTYPE svg PUBLIC "-//W3C//DTD SVG 1.1//EN" "http://www.w3.org/Graphics/SVG/1.1/DTD/svg11.dtd">
<svg version="1.1" id="Layer_1" xmlns="http://www.w3.org/2000/svg" xmlns:xlink="http://www.w3.org/1999/xlink" x="0px" y="0px"
	 viewBox="0 0 56 56" style="enable-background:new 0 0 56 56;" xml:space="preserve">
<style type="text/css">
	.st0{fill:#FFFFFF;stroke:#BCBEC0;stroke-miterlimit:10;}
	.st1{fill:#017D8A;}
	.st2{fill:none;stroke:#BCBEC0;stroke-width:4;stroke-linecap:round;stroke-linejoin:round;stroke-miterlimit:10;}
</style>
<circle class="st0" cx="28" cy="28" r="25"/>
<g>
	<path class="st1" d="M20.2,13.3L25,21h0v-7.7h2.4v11.4h-2.5l-4.8-7.6h0v7.6h-2.4V13.3H20.2z"/>
	<path class="st1" d="M28.7,16.7c0.3-0.7,0.6-1.4,1.1-1.9c0.5-0.5,1.1-1,1.8-1.3c0.7-0.3,1.5-0.5,2.4-0.5c0.9,0,1.7,0.2,2.4,0.5
		c0.7,0.3,1.3,0.7,1.8,1.3c0.5,0.5,0.8,1.2,1.1,1.9s0.4,1.5,0.4,2.4c0,0.8-0.1,1.6-0.4,2.3s-0.6,1.3-1.1,1.9c-0.5,0.5-1.1,1-1.8,1.3
		S34.8,25,33.9,25c-0.9,0-1.7-0.2-2.4-0.5c-0.7-0.3-1.3-0.7-1.8-1.3c-0.5-0.5-0.8-1.2-1.1-1.9s-0.4-1.5-0.4-2.3
		C28.3,18.2,28.4,17.4,28.7,16.7z M31,20.5c0.1,0.5,0.3,0.9,0.5,1.2c0.2,0.4,0.6,0.7,1,0.9s0.9,0.3,1.4,0.3s1-0.1,1.4-0.3
		s0.7-0.5,1-0.9s0.4-0.8,0.5-1.2s0.2-0.9,0.2-1.4c0-0.5-0.1-1-0.2-1.5c-0.1-0.5-0.3-0.9-0.5-1.3s-0.6-0.7-1-0.9s-0.9-0.3-1.4-0.3
		s-1,0.1-1.4,0.3s-0.7,0.5-1,0.9c-0.2,0.4-0.4,0.8-0.5,1.3c-0.1,0.5-0.2,1-0.2,1.5C30.8,19.5,30.8,20,31,20.5z"/>
</g>
<polyline class="st2" points="16.8,29.3 28.4,40.8 39.9,29.3 "/>
</svg>
