<?xml version="1.0" encoding="utf-8"?>
<!-- Generator: Adobe Illustrator 20.0.0, SVG Export Plug-In . SVG Version: 6.00 Build 0)  -->
<!DOCTYPE svg PUBLIC "-//W3C//DTD SVG 1.1//EN" "http://www.w3.org/Graphics/SVG/1.1/DTD/svg11.dtd">
<svg version="1.1" id="Layer_1" xmlns="http://www.w3.org/2000/svg" xmlns:xlink="http://www.w3.org/1999/xlink" x="0px" y="0px"
	 viewBox="0 0 56 56" style="enable-background:new 0 0 56 56;" xml:space="preserve">
<style type="text/css">
	.st0{fill:#FFFFFF;stroke:#BCBEC0;stroke-miterlimit:10;}
	.st1{fill:#017D8A;}
	.st2{fill:none;stroke:#BCBEC0;stroke-width:4;stroke-linecap:round;stroke-linejoin:round;stroke-miterlimit:10;}
</style>
<circle class="st0" cx="28" cy="28" r="25"/>
<g>
	<path class="st1" d="M12.2,13.3H15l2.7,4.5l2.7-4.5h2.8l-4.2,7v4.4h-2.5v-4.4L12.2,13.3z"/>
	<path class="st1" d="M31.8,13.3v2.1h-6v2.4h5.5v2h-5.5v2.8h6.2v2.1h-8.7V13.3H31.8z"/>
	<path class="st1" d="M34.7,21.9c0.1,0.3,0.3,0.5,0.6,0.6s0.5,0.3,0.8,0.4s0.6,0.1,1,0.1c0.2,0,0.5,0,0.7-0.1c0.3,0,0.5-0.1,0.7-0.2
		c0.2-0.1,0.4-0.3,0.6-0.4s0.2-0.4,0.2-0.7c0-0.3-0.1-0.6-0.3-0.8c-0.2-0.2-0.5-0.4-0.8-0.5s-0.7-0.2-1.1-0.3s-0.8-0.2-1.2-0.3
		c-0.4-0.1-0.8-0.2-1.2-0.4s-0.8-0.4-1.1-0.6c-0.3-0.2-0.6-0.6-0.8-0.9c-0.2-0.4-0.3-0.8-0.3-1.3c0-0.6,0.1-1.1,0.4-1.5
		c0.3-0.4,0.6-0.8,1-1.1s0.9-0.5,1.4-0.6s1-0.2,1.5-0.2c0.6,0,1.2,0.1,1.7,0.2c0.5,0.1,1,0.3,1.5,0.6s0.8,0.7,1,1.1
		c0.2,0.5,0.4,1,0.4,1.7h-2.4c0-0.3-0.1-0.6-0.2-0.8c-0.1-0.2-0.3-0.4-0.5-0.5c-0.2-0.1-0.4-0.2-0.7-0.3C37.2,15,37,15,36.7,15
		c-0.2,0-0.4,0-0.6,0.1c-0.2,0-0.4,0.1-0.6,0.2c-0.2,0.1-0.3,0.2-0.4,0.4c-0.1,0.2-0.2,0.4-0.2,0.6c0,0.2,0,0.4,0.1,0.5
		c0.1,0.1,0.3,0.3,0.5,0.4c0.2,0.1,0.6,0.2,1,0.4s1,0.3,1.7,0.4c0.2,0,0.5,0.1,0.9,0.2c0.4,0.1,0.8,0.3,1.1,0.5c0.4,0.2,0.7,0.6,1,1
		c0.3,0.4,0.4,0.9,0.4,1.6c0,0.5-0.1,1-0.3,1.5c-0.2,0.4-0.5,0.8-0.9,1.2c-0.4,0.3-0.9,0.6-1.5,0.8C38.4,24.9,37.8,25,37,25
		c-0.6,0-1.2-0.1-1.8-0.2c-0.6-0.2-1.1-0.4-1.6-0.7c-0.5-0.3-0.8-0.8-1.1-1.3c-0.3-0.5-0.4-1.1-0.4-1.8h2.4
		C34.5,21.3,34.6,21.6,34.7,21.9z"/>
</g>
<polyline class="st2" points="16.2,29.7 27.8,41.3 39.3,29.7 "/>
</svg>
