<?xml version="1.0" encoding="utf-8"?>
<!-- Generator: Adobe Illustrator 20.0.0, SVG Export Plug-In . SVG Version: 6.00 Build 0)  -->
<!DOCTYPE svg PUBLIC "-//W3C//DTD SVG 1.1//EN" "http://www.w3.org/Graphics/SVG/1.1/DTD/svg11.dtd">
<svg version="1.1" id="Layer_1" xmlns="http://www.w3.org/2000/svg" xmlns:xlink="http://www.w3.org/1999/xlink" x="0px" y="0px"
	 viewBox="0 0 56 56" style="enable-background:new 0 0 56 56;" xml:space="preserve">
<style type="text/css">
	.st0{fill:#FFFFFF;stroke:#BCBEC0;stroke-miterlimit:10;}
	.st1{fill:#017D8A;}
	.st2{fill:none;stroke:#BCBEC0;stroke-width:4;stroke-linecap:round;stroke-linejoin:round;stroke-miterlimit:10;}
</style>
<circle class="st0" cx="173.1" cy="28" r="25"/>
<g>
	<path class="st1" d="M150.2,21.7h2.8l2.7,4.5l2.7-4.5h2.8l-4.2,7v4.4h-2.5v-4.4L150.2,21.7z"/>
	<path class="st1" d="M169.9,21.7v2.1h-6v2.4h5.5v2h-5.5V31h6.2v2.1h-8.7V21.7H169.9z"/>
	<path class="st1" d="M172.8,30.3c0.1,0.3,0.3,0.5,0.6,0.6s0.5,0.3,0.8,0.4s0.6,0.1,1,0.1c0.2,0,0.5,0,0.7-0.1
		c0.3,0,0.5-0.1,0.7-0.2c0.2-0.1,0.4-0.3,0.6-0.4s0.2-0.4,0.2-0.7c0-0.3-0.1-0.6-0.3-0.8c-0.2-0.2-0.5-0.4-0.8-0.5s-0.7-0.2-1.1-0.3
		s-0.8-0.2-1.2-0.3c-0.4-0.1-0.8-0.2-1.2-0.4s-0.8-0.4-1.1-0.6c-0.3-0.2-0.6-0.6-0.8-0.9c-0.2-0.4-0.3-0.8-0.3-1.3
		c0-0.6,0.1-1.1,0.4-1.5c0.3-0.4,0.6-0.8,1-1.1s0.9-0.5,1.4-0.6s1-0.2,1.5-0.2c0.6,0,1.2,0.1,1.7,0.2c0.5,0.1,1,0.3,1.5,0.6
		s0.8,0.7,1,1.1c0.2,0.5,0.4,1,0.4,1.7H177c0-0.3-0.1-0.6-0.2-0.8c-0.1-0.2-0.3-0.4-0.5-0.5c-0.2-0.1-0.4-0.2-0.7-0.3
		c-0.3-0.1-0.5-0.1-0.9-0.1c-0.2,0-0.4,0-0.6,0.1c-0.2,0-0.4,0.1-0.6,0.2c-0.2,0.1-0.3,0.2-0.4,0.4c-0.1,0.2-0.2,0.4-0.2,0.6
		c0,0.2,0,0.4,0.1,0.5c0.1,0.1,0.3,0.3,0.5,0.4c0.2,0.1,0.6,0.2,1,0.4s1,0.3,1.7,0.4c0.2,0,0.5,0.1,0.9,0.2c0.4,0.1,0.8,0.3,1.1,0.5
		c0.4,0.2,0.7,0.6,1,1c0.3,0.4,0.4,0.9,0.4,1.6c0,0.5-0.1,1-0.3,1.5c-0.2,0.4-0.5,0.8-0.9,1.2c-0.4,0.3-0.9,0.6-1.5,0.8
		c-0.6,0.2-1.3,0.3-2.1,0.3c-0.6,0-1.2-0.1-1.8-0.2c-0.6-0.2-1.1-0.4-1.6-0.7c-0.5-0.3-0.8-0.8-1.1-1.3c-0.3-0.5-0.4-1.1-0.4-1.8
		h2.4C172.6,29.8,172.7,30.1,172.8,30.3z"/>
</g>
<polyline class="st2" points="176.8,39.5 188.4,27.9 176.8,16.4 "/>
<circle class="st0" cx="249.1" cy="28" r="25"/>
<g>
	<path class="st1" d="M233.1,21.7l4.8,7.7h0v-7.7h2.4v11.4h-2.5l-4.8-7.6h0v7.6h-2.4V21.7H233.1z"/>
	<path class="st1" d="M241.6,25.1c0.3-0.7,0.6-1.4,1.1-1.9c0.5-0.5,1.1-1,1.8-1.3c0.7-0.3,1.5-0.5,2.4-0.5c0.9,0,1.7,0.2,2.4,0.5
		c0.7,0.3,1.3,0.7,1.8,1.3c0.5,0.5,0.8,1.2,1.1,1.9s0.4,1.5,0.4,2.4c0,0.8-0.1,1.6-0.4,2.3s-0.6,1.3-1.1,1.9c-0.5,0.5-1.1,1-1.8,1.3
		s-1.5,0.5-2.4,0.5c-0.9,0-1.7-0.2-2.4-0.5c-0.7-0.3-1.3-0.7-1.8-1.3c-0.5-0.5-0.8-1.2-1.1-1.9s-0.4-1.5-0.4-2.3
		C241.2,26.6,241.3,25.8,241.6,25.1z M243.8,28.9c0.1,0.5,0.3,0.9,0.5,1.2c0.2,0.4,0.6,0.7,1,0.9s0.9,0.3,1.4,0.3s1-0.1,1.4-0.3
		s0.7-0.5,1-0.9s0.4-0.8,0.5-1.2s0.2-0.9,0.2-1.4c0-0.5-0.1-1-0.2-1.5c-0.1-0.5-0.3-0.9-0.5-1.3s-0.6-0.7-1-0.9s-0.9-0.3-1.4-0.3
		s-1,0.1-1.4,0.3s-0.7,0.5-1,0.9c-0.2,0.4-0.4,0.8-0.5,1.3c-0.1,0.5-0.2,1-0.2,1.5C243.7,28,243.7,28.4,243.8,28.9z"/>
</g>
<polyline class="st2" points="252.8,39.5 264.4,27.9 252.8,16.4 "/>
<circle class="st0" cx="97.1" cy="28" r="25"/>
<g>
	<path class="st1" d="M81.3,13.3h2.8l2.7,4.5l2.7-4.5h2.8l-4.2,7v4.4h-2.5v-4.4L81.3,13.3z"/>
	<path class="st1" d="M100.9,13.3v2.1h-6v2.4h5.5v2h-5.5v2.8h6.2v2.1h-8.7V13.3H100.9z"/>
	<path class="st1" d="M103.9,21.9c0.1,0.3,0.3,0.5,0.6,0.6s0.5,0.3,0.8,0.4s0.6,0.1,1,0.1c0.2,0,0.5,0,0.7-0.1
		c0.3,0,0.5-0.1,0.7-0.2c0.2-0.1,0.4-0.3,0.6-0.4s0.2-0.4,0.2-0.7c0-0.3-0.1-0.6-0.3-0.8c-0.2-0.2-0.5-0.4-0.8-0.5s-0.7-0.2-1.1-0.3
		s-0.8-0.2-1.2-0.3c-0.4-0.1-0.8-0.2-1.2-0.4s-0.8-0.4-1.1-0.6c-0.3-0.2-0.6-0.6-0.8-0.9c-0.2-0.4-0.3-0.8-0.3-1.3
		c0-0.6,0.1-1.1,0.4-1.5c0.3-0.4,0.6-0.8,1-1.1s0.9-0.5,1.4-0.6s1-0.2,1.5-0.2c0.6,0,1.2,0.1,1.7,0.2c0.5,0.1,1,0.3,1.5,0.6
		s0.8,0.7,1,1.1c0.2,0.5,0.4,1,0.4,1.7H108c0-0.3-0.1-0.6-0.2-0.8c-0.1-0.2-0.3-0.4-0.5-0.5c-0.2-0.1-0.4-0.2-0.7-0.3
		c-0.3-0.1-0.5-0.1-0.9-0.1c-0.2,0-0.4,0-0.6,0.1c-0.2,0-0.4,0.1-0.6,0.2c-0.2,0.1-0.3,0.2-0.4,0.4c-0.1,0.2-0.2,0.4-0.2,0.6
		c0,0.2,0,0.4,0.1,0.5c0.1,0.1,0.3,0.3,0.5,0.4c0.2,0.1,0.6,0.2,1,0.4s1,0.3,1.7,0.4c0.2,0,0.5,0.1,0.9,0.2c0.4,0.1,0.8,0.3,1.1,0.5
		c0.4,0.2,0.7,0.6,1,1c0.3,0.4,0.4,0.9,0.4,1.6c0,0.5-0.1,1-0.3,1.5c-0.2,0.4-0.5,0.8-0.9,1.2c-0.4,0.3-0.9,0.6-1.5,0.8
		c-0.6,0.2-1.3,0.3-2.1,0.3c-0.6,0-1.2-0.1-1.8-0.2c-0.6-0.2-1.1-0.4-1.6-0.7c-0.5-0.3-0.8-0.8-1.1-1.3c-0.3-0.5-0.4-1.1-0.4-1.8
		h2.4C103.7,21.3,103.7,21.6,103.9,21.9z"/>
</g>
<polyline class="st2" points="85.3,29.7 96.9,41.3 108.4,29.7 "/>
<circle class="st0" cx="28" cy="28" r="25"/>
<g>
	<path class="st1" d="M20.2,13.3L25,21h0v-7.7h2.4v11.4h-2.5l-4.8-7.6h0v7.6h-2.4V13.3H20.2z"/>
	<path class="st1" d="M28.7,16.7c0.3-0.7,0.6-1.4,1.1-1.9c0.5-0.5,1.1-1,1.8-1.3c0.7-0.3,1.5-0.5,2.4-0.5c0.9,0,1.7,0.2,2.4,0.5
		c0.7,0.3,1.3,0.7,1.8,1.3c0.5,0.5,0.8,1.2,1.1,1.9s0.4,1.5,0.4,2.4c0,0.8-0.1,1.6-0.4,2.3s-0.6,1.3-1.1,1.9c-0.5,0.5-1.1,1-1.8,1.3
		S34.8,25,33.9,25c-0.9,0-1.7-0.2-2.4-0.5c-0.7-0.3-1.3-0.7-1.8-1.3c-0.5-0.5-0.8-1.2-1.1-1.9s-0.4-1.5-0.4-2.3
		C28.3,18.2,28.4,17.4,28.7,16.7z M31,20.5c0.1,0.5,0.3,0.9,0.5,1.2c0.2,0.4,0.6,0.7,1,0.9s0.9,0.3,1.4,0.3s1-0.1,1.4-0.3
		s0.7-0.5,1-0.9s0.4-0.8,0.5-1.2s0.2-0.9,0.2-1.4c0-0.5-0.1-1-0.2-1.5c-0.1-0.5-0.3-0.9-0.5-1.3s-0.6-0.7-1-0.9s-0.9-0.3-1.4-0.3
		s-1,0.1-1.4,0.3s-0.7,0.5-1,0.9c-0.2,0.4-0.4,0.8-0.5,1.3c-0.1,0.5-0.2,1-0.2,1.5C30.8,19.5,30.8,20,31,20.5z"/>
</g>
<polyline class="st2" points="16.8,29.3 28.4,40.8 39.9,29.3 "/>
<circle class="st0" cx="401.1" cy="27.9" r="25"/>
<polyline class="st2" points="389.3,24.6 400.9,36.2 412.4,24.6 "/>
<circle class="st0" cx="325.1" cy="27.9" r="25"/>
<polyline class="st2" points="321.8,39.4 333.4,27.9 321.8,16.3 "/>
<g>
</g>
<g>
</g>
<g>
</g>
<g>
</g>
<g>
</g>
<g>
</g>
</svg>
