<?xml version="1.0" encoding="UTF-8"?>
<svg width="140px" height="31px" viewBox="0 0 140 31" version="1.1" xmlns="http://www.w3.org/2000/svg" xmlns:xlink="http://www.w3.org/1999/xlink">
    <!-- Generator: sketchtool 40.3 (33839) - http://www.bohemiancoding.com/sketch -->
    <title>15AFE46D-F824-40CF-A7A0-8CF6BCDEDC1F</title>
    <desc>Created with sketchtool.</desc>
    <defs></defs>
    <g id="Login" stroke="none" stroke-width="1" fill="none" fill-rule="evenodd">
        <g id="UX_CSG_browser_legal_TW_green" transform="translate(-113.000000, -30.000000)">
            <g id="Allscripts_splash_01" transform="translate(113.000000, 30.000000)">
                <path d="M12.8884747,7.88403604 C11.7035288,7.88403604 10.743044,8.79545257 10.743044,9.91880216 C10.743044,11.0411077 11.7035288,11.9525243 12.8884747,11.9525243 C14.0727245,11.9525243 15.0342533,11.0411077 15.0342533,9.91880216 C15.0342533,8.79545257 14.0727245,7.88403604 12.8884747,7.88403604" id="Fill-2" fill="#FFFFFF"></path>
                <path d="M6.60947945,19.14398 C7.30826692,18.8050263 7.49723186,17.7533651 7.03299756,16.7981003 C6.56841525,15.8431836 5.62567856,15.3420611 4.9282831,15.6820588 C4.22984363,16.0213605 4.03948668,17.0709337 4.50476499,18.0279384 C4.9689993,18.9835512 5.91103998,19.4839777 6.60947945,19.14398" id="Fill-3" fill="#FFFFFF"></path>
                <path d="M8.94874707,16.0575527 C10.0710527,16.0575527 10.9807292,15.0848878 10.9807292,13.8842819 C10.9807292,12.6850679 10.0710527,11.7124031 8.94874707,11.7124031 C7.82539749,11.7124031 6.91572097,12.6850679 6.91572097,13.8842819 C6.91572097,15.0848878 7.82539749,16.0575527 8.94874707,16.0575527" id="Fill-4" fill="#FFFFFF"></path>
                <path d="M3.10440603,18.4424085 C2.74874827,18.6804417 2.86150083,19.4697096 3.35496728,20.2046893 C3.84947774,20.9379289 4.53852116,21.3405669 4.89417893,21.1007937 C5.24844469,20.8620645 5.13569213,20.0734926 4.64118167,19.339209 C4.14771522,18.6052733 3.45867179,18.2036793 3.10440603,18.4424085" id="Fill-5" fill="#FFFFFF"></path>
                <path d="M19.1288417,19.14398 C19.8262371,19.4839777 20.7693218,18.9835512 21.2335561,18.0279384 C21.6995304,17.0709337 21.5091735,16.0213605 20.810038,15.6820588 C20.1129905,15.3420611 19.1699059,15.8431836 18.7046276,16.7981003 C18.2410892,17.7533651 18.4297062,18.8050263 19.1288417,19.14398" id="Fill-6" fill="#FFFFFF"></path>
                <path d="M16.789922,16.0575527 C17.9132716,16.0575527 18.8236441,15.0848878 18.8236441,13.8842819 C18.8236441,12.6850679 17.9132716,11.7124031 16.789922,11.7124031 C15.6665725,11.7124031 14.7572439,12.6850679 14.7572439,13.8842819 C14.7572439,15.0848878 15.6665725,16.0575527 16.789922,16.0575527" id="Fill-7" fill="#FFFFFF"></path>
                <path d="M22.3826578,20.2043413 C22.8761243,19.4693616 22.9899208,18.6811377 22.6349591,18.4420605 C22.2782573,18.2033313 21.5909539,18.6049253 21.0964434,19.339209 C20.602977,20.0734926 20.4902244,20.8617165 20.8441422,21.1007937 C21.200148,21.3402189 21.8881474,20.9375809 22.3826578,20.2043413" id="Fill-8" fill="#FFFFFF"></path>
                <path d="M23.826169,19.6315304 C23.6890563,19.54627 23.7551766,19.0086073 24.0015619,18.3721122 C24.2479471,17.735617 24.5862048,17.2355385 24.7205334,17.325671 C25.1179514,17.5905003 24.0541101,19.7735151 23.826169,19.6315304" id="Fill-9" fill="#FFFFFF"></path>
                <path d="M1.83071971,7.40031364 C1.72631919,7.4326778 1.01952767,9.01538967 1.06233189,9.04636182 C1.09539205,9.06898193 1.33377324,8.61623168 1.49559404,8.27484199 C1.67446693,7.89900012 1.88048395,7.38186955 1.83071971,7.40031364" id="Fill-10" fill="#FFFFFF"></path>
                <path d="M23.9023814,7.39857363 C24.0071299,7.43093779 24.7135734,9.01469366 24.6707692,9.04462181 C24.637361,9.06724192 24.3993278,8.61449167 24.237507,8.27275398 C24.0586342,7.89795611 23.8522691,7.38012954 23.9023814,7.39857363" id="Fill-11" fill="#FFFFFF"></path>
                <path d="M9.44151752,1.51978042 C8.95153109,1.65515309 8.54367306,1.72718945 8.52627298,1.68194923 C8.52627298,1.61339289 10.1855452,1.09417431 10.3136099,1.18743877 C10.35189,1.21597491 9.93428797,1.38301574 9.44151752,1.51978042" id="Fill-12" fill="#FFFFFF"></path>
                <path d="M3.62397262,5.05025796 C3.69496497,5.09375818 3.44683974,5.52388832 3.08213392,5.99403865 C2.71777611,6.46314498 2.34367425,6.82332677 2.30191405,6.75129042 C2.19507752,6.56858951 3.42108761,4.92741335 3.62397262,5.05025796" id="Fill-13" fill="#FFFFFF"></path>
                <path id="Fill-14" fill="#FFFFFF"></path>
                <polyline id="Fill-15" fill="#FFFFFF" points="12.8689866 0.914953416 12.8533265 0.914953416 12.8749026 0.914953416 12.8689866 0.914953416"></polyline>
                <path id="Fill-16" fill="#FFFFFF"></path>
                <path d="M4.53399714,9.74828131 C4.06871883,10.7045901 4.25837977,11.7545113 4.95751524,12.094161 C5.65630271,12.4341587 6.59764739,11.9337322 7.0629257,10.9777714 C7.52750801,10.0221587 7.33854307,8.97154145 6.6394076,8.63258776 C5.94131613,8.29259007 4.99823144,8.79197256 4.53399714,9.74828131" id="Fill-17" fill="#FFFFFF"></path>
                <path d="M1.56971841,12.6516597 C1.88465997,12.7226521 2.28729797,12.1282651 2.46999888,11.3229891 C2.65235179,10.5177131 2.54621126,9.80813761 2.2319657,9.73610125 C1.91806814,9.6661529 1.51543014,10.2598439 1.33272923,11.0651199 C1.14968032,11.8700479 1.25651685,12.5806674 1.56971841,12.6516597" id="Fill-18" fill="#FFFFFF"></path>
                <path d="M12.8884747,19.7863912 C14.0727245,19.7863912 15.0342533,18.8767147 15.0342533,17.7516251 C15.0342533,16.6286235 14.0727245,15.718947 12.8884747,15.718947 C11.7035288,15.718947 10.743044,16.6286235 10.743044,17.7516251 C10.743044,18.8767147 11.7035288,19.7863912 12.8884747,19.7863912" id="Fill-19" fill="#FFFFFF"></path>
                <path d="M2.48600696,16.531879 C2.28729797,15.731823 1.87317592,15.1437001 1.55997436,15.2216525 C1.2464248,15.2999529 1.15385634,16.0116164 1.35360933,16.8123684 C1.55057831,17.6134684 1.96574438,18.2005473 2.27790193,18.1229429 C2.59214749,18.0460345 2.68297594,17.332979 2.48600696,16.531879" id="Fill-20" fill="#FFFFFF"></path>
                <path d="M2.22430966,13.90899 C2.22430966,14.8771308 2.68123593,15.6618747 3.24882675,15.6618747 C3.81432956,15.6618747 4.27369184,14.8771308 4.27369184,13.90899 C4.27369184,12.9411972 3.81432956,12.1574973 3.24882675,12.1574973 C2.68123593,12.1574973 2.22430966,12.9411972 2.22430966,13.90899" id="Fill-21" fill="#FFFFFF"></path>
                <path d="M0.80933463,12.6781079 C0.613409657,12.6781079 0.455416872,13.2617068 0.455416872,13.9817223 C0.455416872,14.7017379 0.613409657,15.2853368 0.80933463,15.2853368 C1.00560761,15.2853368 1.16360039,14.7017379 1.16360039,13.9817223 C1.16360039,13.2617068 1.00560761,12.6781079 0.80933463,12.6781079" id="Fill-22" fill="#FFFFFF"></path>
                <path d="M7.68410879,7.71247119 C8.04985861,8.40986666 9.11230789,8.57342747 10.0550446,8.076481 C10.9981293,7.58057854 11.4647996,6.61348173 11.0990498,5.91608627 C10.7315599,5.2193868 9.67015466,5.056522 8.72741797,5.55172846 C7.78433329,6.04867493 7.31661896,7.01507573 7.68410879,7.71247119" id="Fill-23" fill="#FFFFFF"></path>
                <path d="M6.56389122,4.42489886 C5.83308759,4.92428134 5.43323361,5.61088875 5.67196279,5.95923848 C5.90999598,6.30724021 6.69439187,6.1854396 7.42589151,5.68605712 C8.15669514,5.18667464 8.55654913,4.50006723 8.31955995,4.1517175 C8.08152677,3.80336777 7.29643486,3.92551638 6.56389122,4.42489886" id="Fill-24" fill="#FFFFFF"></path>
                <path d="M3.3793274,7.56770247 C2.89003697,8.30511814 2.78389644,9.09508206 3.13990221,9.33137524 C3.49660398,9.56766841 4.18216739,9.16120239 4.67215382,8.42204672 C5.15831224,7.68463105 5.26688878,6.89431913 4.909491,6.65906996 C4.55313723,6.42242878 3.86722582,6.8292428 3.3793274,7.56770247" id="Fill-25" fill="#FFFFFF"></path>
                <path d="M0.974635452,10.5340692 C1.12392819,10.5925335 1.44582979,10.1234272 1.69221502,9.48693201 C1.93755624,8.84974084 2.01794464,8.28737005 1.86656388,8.22820976 C1.71796715,8.16974546 1.39467354,8.6391998 1.14933232,9.27569496 C0.903643099,9.91288613 0.823602701,10.4766489 0.974635452,10.5340692" id="Fill-26" fill="#FFFFFF"></path>
                <path d="M10.9887332,21.7870531 C11.355527,21.0896577 10.8885087,20.1236049 9.94577203,19.6273544 C9.00268734,19.1321479 7.94128207,19.2939687 7.57448825,19.9913642 C7.20734642,20.6880637 7.67471274,21.6551605 8.61779743,22.1510629 C9.56157812,22.6473134 10.6229834,22.4844486 10.9887332,21.7870531" id="Fill-27" fill="#FFFFFF"></path>
                <path d="M1.91215211,19.6297904 C2.04926479,19.54453 1.98314446,19.0068673 1.73675924,18.3703722 C1.49037401,17.733877 1.15211633,17.2337985 1.01778767,17.323931 C0.620369691,17.5887603 1.68421098,19.7717751 1.91215211,19.6297904" id="Fill-28" fill="#FFFFFF"></path>
                <path d="M3.53558018,6.85882295 C3.96814633,6.27940007 4.18843142,5.71389726 4.02904663,5.59348866 C3.86722582,5.47412407 3.38837545,5.84648592 2.9558093,6.4262568 C2.52393915,7.00498368 2.30365406,7.57118249 2.46408285,7.69089509 C2.62346764,7.80921567 3.10440603,7.43754983 3.53558018,6.85882295" id="Fill-29" fill="#FFFFFF"></path>
                <path d="M11.138374,4.25368201 C11.138374,4.8157048 11.9210298,5.27089106 12.8888227,5.27089106 C13.8545275,5.27089106 14.6396194,4.8157048 14.6396194,4.25368201 C14.6396194,3.69165921 13.8545275,3.23542895 12.8888227,3.23542895 C11.9210298,3.23542895 11.138374,3.69165921 11.138374,4.25368201" id="Fill-30" fill="#FFFFFF"></path>
                <path d="M7.3444591,22.0414424 C6.61435148,21.5420599 5.82856357,21.4199113 5.58983438,21.768261 C5.3524972,22.1166108 5.7533952,22.8032182 6.48350282,23.3015567 C7.21569846,23.8019831 8.00009436,23.9237837 8.23812754,23.575782 C8.47616073,23.2274323 8.07595874,22.5408249 7.3444591,22.0414424" id="Fill-31" fill="#FFFFFF"></path>
                <path d="M2.42510666,20.0251204 C2.26572187,20.146225 2.48705097,20.7113798 2.91857311,21.2901067 C3.35148726,21.8698775 3.83068564,22.2415434 3.99111444,22.1239188 C4.15154324,22.0035102 3.93091014,21.4373114 3.49834399,20.8575405 C3.06577784,20.2798576 2.58623146,19.9064518 2.42510666,20.0251204" id="Fill-32" fill="#FFFFFF"></path>
                <path d="M14.6399674,23.4365813 C14.6399674,22.8756025 13.8541794,22.4186763 12.8888227,22.4186763 C11.9206818,22.4186763 11.138026,22.8756025 11.138026,23.4365813 C11.138026,23.9989521 11.9206818,24.4548344 12.8888227,24.4548344 C13.8541794,24.4548344 14.6399674,23.9989521 14.6399674,23.4365813" id="Fill-33" fill="#FFFFFF"></path>
                <path d="M10.0359045,2.35602858 C9.2365445,2.54638552 8.65016159,2.95250354 8.72358996,3.26396509 C8.79701832,3.57473063 9.50450584,3.67251912 10.3031698,3.48216217 C11.1014858,3.29145722 11.6885647,2.8849912 11.6151363,2.57422566 C11.540664,2.26346012 10.8324804,2.16567163 10.0359045,2.35602858" id="Fill-34" fill="#FFFFFF"></path>
                <path d="M5.42070554,3.94117645 C4.84615469,4.37722262 4.47762086,4.85746501 4.59698545,5.01371778 C4.71391403,5.16962256 5.27628483,4.94237743 5.84909567,4.50633126 C6.42364653,4.0713291 6.79183236,3.59039071 6.67246776,3.43413793 C6.55414718,3.27823316 5.99351639,3.50513029 5.42070554,3.94117645" id="Fill-35" fill="#FFFFFF"></path>
                <path d="M10.139261,24.1642529 C9.34164103,23.973896 8.63450151,24.0713365 8.55933314,24.383146 C8.48660078,24.6935636 9.07193969,25.1003776 9.87129966,25.2907345 C10.6696156,25.4796995 11.3753631,25.382607 11.4515755,25.0718415 C11.5256999,24.7614239 10.938621,24.3546099 10.139261,24.1642529" id="Fill-36" fill="#FFFFFF"></path>
                <path d="M6.6394076,24.2550814 C6.7594682,24.0995246 6.39058636,23.6203262 5.81673151,23.1835841 C5.24392067,22.7475379 4.68154987,22.5206408 4.56288128,22.6765455 C4.47135683,22.7986942 4.67250183,23.1132877 5.03337962,23.4508494 C5.32465707,23.6812265 5.62533056,23.9001196 5.9360961,24.1047446 C6.28200982,24.2902296 6.56006321,24.3594819 6.6394076,24.2550814" id="Fill-37" fill="#FFFFFF"></path>
                <path d="M11.5893842,1.82845796 C11.5893842,2.02055491 12.1715911,2.17645968 12.8881266,2.17645968 C13.6064022,2.17645968 14.1875651,2.02055491 14.1875651,1.82845796 C14.1875651,1.635317 13.6064022,1.47906422 12.8881266,1.47906422 C12.1715911,1.47906422 11.5893842,1.635317 11.5893842,1.82845796" id="Fill-38" fill="#FFFFFF"></path>
                <path d="M7.19969038,2.90621931 C7.25711067,3.05586005 7.82330948,2.97581966 8.46467667,2.72665042 C9.10465185,2.47782918 9.5772382,2.15453558 9.51877391,2.00524283 C9.45961361,1.85490609 8.8941108,1.93599049 8.25343962,2.18376772 C7.61207243,2.43293696 7.14122609,2.75623057 7.19969038,2.90621931" id="Fill-39" fill="#FFFFFF"></path>
                <path d="M5.05704374,4.04662098 C5.51988604,3.67773914 5.85292369,3.32277738 5.79863542,3.25596105 C5.74608716,3.18984072 5.32674508,3.43448594 4.86320677,3.80371577 C4.39897247,4.17364161 4.06906683,4.52790737 4.12091909,4.5947237 C4.17590336,4.66154003 4.59420144,4.41654682 5.05704374,4.04662098" id="Fill-40" fill="#FFFFFF"></path>
                <path d="M14.1879131,25.8308332 C14.1879131,25.6387363 13.6060542,25.4842235 12.8884747,25.4842235 C12.1719391,25.4842235 11.5897322,25.6387363 11.5897322,25.8308332 C11.5897322,26.0211902 12.1670671,26.1774429 12.8794266,26.1784869 C12.9702551,26.1784869 13.0603875,26.1732669 13.15052,26.1718749 C13.7428189,26.1391628 14.1879131,25.9989181 14.1879131,25.8308332" id="Fill-41" fill="#FFFFFF"></path>
                <path id="Fill-42" fill="#FFFFFF"></path>
                <path id="Fill-43" fill="#FFFFFF"></path>
                <path d="M7.24110259,2.53629347 C7.75579715,2.2808602 8.14660309,2.02194692 8.11319492,1.95582659 C8.08048276,1.89179427 7.63782456,2.04456703 7.12417401,2.3000003 C6.60982745,2.55543357 6.22076152,2.81539086 6.25242968,2.88046718 C6.28583784,2.94589151 6.72849604,2.79207474 7.24110259,2.53629347" id="Fill-44" fill="#FFFFFF"></path>
                <path id="Fill-45" fill="#FFFFFF"></path>
                <path d="M19.0985655,8.63258776 C18.400126,8.97154145 18.2104651,10.0221587 18.6757434,10.9777714 C19.1403257,11.9340802 20.0823664,12.4334627 20.7815019,12.094509 C21.4785493,11.7545113 21.6682103,10.7045901 21.202932,9.74828131 C20.7404377,8.79197256 19.796657,8.29259007 19.0985655,8.63258776" id="Fill-46" fill="#FFFFFF"></path>
                <path d="M23.5070514,9.73610125 C23.1921098,9.80883361 23.0859693,10.5177131 23.2679742,11.3229891 C23.4510231,12.1279171 23.8536611,12.7226521 24.1675587,12.6516597 C24.4807603,12.5806674 24.5886408,11.8707439 24.4048959,11.0654679 C24.223587,10.2598439 23.820253,9.6658049 23.5070514,9.73610125" id="Fill-47" fill="#FFFFFF"></path>
                <path d="M24.1790428,15.2213045 C23.8668852,15.1437001 23.4517191,15.731823 23.2530102,16.531879 C23.0549972,17.333675 23.1475656,18.0460345 23.4600712,18.1236389 C23.7715327,18.2012433 24.1866988,17.6134684 24.3854078,16.8123684 C24.5834208,16.0112684 24.4905043,15.2999529 24.1790428,15.2213045" id="Fill-48" fill="#FFFFFF"></path>
                <path d="M22.4898424,15.6622227 C23.0560412,15.6622227 23.5147075,14.8771308 23.5147075,13.909338 C23.5147075,12.9411972 23.0560412,12.1578453 22.4898424,12.1578453 C21.9219035,12.1578453 21.4635853,12.9411972 21.4635853,13.909338 C21.4635853,14.8771308 21.9219035,15.6622227 22.4898424,15.6622227" id="Fill-49" fill="#FFFFFF"></path>
                <path d="M24.9289865,12.6781079 C24.7320175,12.6781079 24.5733287,13.2617068 24.5733287,13.9817223 C24.5733287,14.7017379 24.7320175,15.2853368 24.9289865,15.2853368 C25.1235194,15.2853368 25.2832522,14.7017379 25.2832522,13.9817223 C25.2832522,13.2617068 25.1235194,12.6781079 24.9289865,12.6781079" id="Fill-50" fill="#FFFFFF"></path>
                <path d="M14.6399674,5.91573826 C14.2724775,6.61313373 14.7401919,7.58127454 15.6832765,8.077177 C16.6260132,8.57342747 17.6867225,8.40951866 18.0552563,7.71212319 C18.4199621,7.01472773 17.9532918,6.04867493 17.0119471,5.55172846 C16.0681665,5.05617399 15.0057172,5.2190388 14.6399674,5.91573826" id="Fill-51" fill="#FFFFFF"></path>
                <path d="M17.4201532,4.1517175 C17.18212,4.50006723 17.580234,5.18632664 18.3110376,5.68605712 C19.0442772,6.1854396 19.8286731,6.30724021 20.0660103,5.95993448 C20.3036955,5.61088875 19.9045375,4.92428134 19.1730379,4.42489886 C18.4422342,3.92551638 17.6571423,3.80336777 17.4201532,4.1517175" id="Fill-52" fill="#FFFFFF"></path>
                <path d="M22.5980709,9.33102723 C22.9547727,9.09473406 22.8472401,8.30477014 22.3586457,7.56735447 C21.8707473,6.8288948 21.1851839,6.42312479 20.8291781,6.65872196 C20.4717803,6.89431913 20.5786169,7.68428305 21.0665153,8.42274272 C21.5558057,9.16085439 22.2399771,9.56766841 22.5980709,9.33102723" id="Fill-53" fill="#FFFFFF"></path>
                <path d="M24.7636857,10.5340692 C24.9140224,10.4766489 24.835374,9.91288613 24.5889888,9.27569496 C24.3426036,8.6391998 24.020354,8.16974546 23.8717572,8.22820976 C23.7203765,8.28737005 23.7997209,8.84974084 24.0454101,9.48693201 C24.2928393,10.1234272 24.6150889,10.5925335 24.7636857,10.5340692" id="Fill-54" fill="#FFFFFF"></path>
                <path d="M18.1634849,19.9910162 C17.797735,19.2936207 16.7352858,19.1317999 15.7922011,19.6270064 C14.8494644,20.1239529 14.3834901,21.0903537 14.7492399,21.7867051 C15.1167297,22.4841006 16.177439,22.6480094 17.1201757,22.1510629 C18.0632604,21.6548125 18.5309747,20.6884117 18.1634849,19.9910162" id="Fill-55" fill="#FFFFFF"></path>
                <path d="M23.2759783,7.69089509 C23.4353631,7.57118249 23.215078,7.00498368 22.7832078,6.4255608 C22.3506417,5.84683392 21.8703993,5.47412407 21.7099705,5.59348866 C21.5505857,5.71320126 21.7708708,6.27940007 22.2034369,6.85882295 C22.6346111,7.43754983 23.1148535,7.80921567 23.2759783,7.69089509" id="Fill-56" fill="#FFFFFF"></path>
                <path d="M18.393514,22.0414424 C17.6627104,22.5408249 17.2611164,23.2274323 17.4998456,23.575782 C17.7378787,23.9237837 18.5240147,23.8019831 19.2537743,23.3015567 C19.9863179,22.8032182 20.3854759,22.1166108 20.1474427,21.768261 C19.9094095,21.4199113 19.1243176,21.5420599 18.393514,22.0414424" id="Fill-57" fill="#FFFFFF"></path>
                <path d="M22.2399771,20.8578885 C21.807411,21.4366154 21.5867779,22.0038582 21.7465107,22.1232228 C21.9076355,22.2415434 22.3868338,21.8691815 22.818704,21.2904547 C23.2512701,20.7117278 23.4712072,20.146225 23.3125184,20.0251204 C23.1520897,19.9064518 22.6718473,20.2788136 22.2399771,20.8578885" id="Fill-58" fill="#FFFFFF"></path>
                <path d="M22.1115645,5.04851796 C22.0405721,5.09201817 22.2886974,5.52214831 22.6537512,5.99229864 C23.017761,6.46175298 23.3922108,6.82158677 23.4339711,6.74989841 C23.5408076,6.5671975 22.3147975,4.92567334 22.1115645,5.04851796" id="Fill-59" fill="#FFFFFF"></path>
                <path d="M15.7034606,2.35602858 C14.9047967,2.16567163 14.1976572,2.26346012 14.1242288,2.57422566 C14.0497564,2.8849912 14.6368353,3.29145722 15.4344553,3.48216217 C16.2327713,3.67251912 16.9402588,3.57473063 17.0147312,3.26396509 C17.0888555,2.95250354 16.5010806,2.54638552 15.7034606,2.35602858" id="Fill-60" fill="#FFFFFF"></path>
                <path d="M20.3179636,3.94117645 C19.7451527,3.50513029 19.1838259,3.27823316 19.0651573,3.43413793 C18.9468368,3.59039071 19.3150226,4.0713291 19.8888774,4.50633126 C20.4616883,4.94237743 21.0230151,5.16962256 21.1406397,5.01371778 C21.2600042,4.85746501 20.8911224,4.37722262 20.3179636,3.94117645" id="Fill-61" fill="#FFFFFF"></path>
                <path d="M15.5987121,24.1642529 C14.7993521,24.3546099 14.2122732,24.7614239 14.2874416,25.0718415 C14.361914,25.382607 15.0683575,25.4796995 15.8659774,25.2907345 C16.6653374,25.1003776 17.2524163,24.6935636 17.178292,24.383146 C17.1045156,24.0713365 16.3963321,23.973896 15.5987121,24.1642529" id="Fill-62" fill="#FFFFFF"></path>
                <path d="M21.1750918,22.6765455 C21.0553792,22.5202928 20.4950964,22.7482339 19.9222856,23.1835841 C19.3484307,23.6203262 18.9792009,24.0995246 19.0985655,24.2550814 C19.1779099,24.3601779 19.4580513,24.2898816 19.804661,24.1030046 C20.1119465,23.9008156 20.40914,23.6854026 20.6972855,23.4574614 C21.0612953,23.1174637 21.2669643,22.7990422 21.1750918,22.6765455" id="Fill-63" fill="#FFFFFF"></path>
                <path d="M17.2739924,2.72630242 C17.9146636,2.97616766 18.4819064,3.05551205 18.5393267,2.90621931 C18.597095,2.75588256 18.1259007,2.43328496 17.4852295,2.18446372 C16.8449063,1.93564249 16.2776635,1.85560209 16.2202432,2.00489483 C16.1614309,2.15523158 16.6333213,2.47748118 17.2739924,2.72630242" id="Fill-64" fill="#FFFFFF"></path>
                <path d="M20.6809294,4.04662098 C21.1437717,4.41654682 21.5631138,4.66154003 21.615662,4.5947237 C21.6689063,4.52790737 21.3372606,4.17364161 20.8747663,3.80371577 C20.411924,3.43448594 19.9918859,3.18984072 19.9382937,3.25596105 C19.8857454,3.32277738 20.2173911,3.67773914 20.6809294,4.04662098" id="Fill-65" fill="#FFFFFF"></path>
                <path d="M17.4344212,24.9155887 C16.7972301,25.173458 16.3295157,25.5026676 16.38972,25.6519603 L18.6980155,24.7182717 C18.6371152,24.568979 18.0709164,24.6566754 17.4344212,24.9155887" id="Fill-66" fill="#FFFFFF"></path>
                <path d="M17.4344212,24.9124567 C16.7972301,25.1703259 16.2853195,25.5263317 16.38972,25.6488283 C16.4774165,25.7518368 18.6712194,24.8195402 18.6980155,24.7151397 C18.7373397,24.5588869 18.0709164,24.6535434 17.4344212,24.9124567" id="Fill-67" fill="#FFFFFF"></path>
                <path id="Fill-68" fill="#FFFFFF"></path>
                <path d="M18.4972185,2.53629347 C19.0108691,2.79207474 19.4535273,2.94589151 19.4858914,2.88046718 C19.5186036,2.81539086 19.1284937,2.55543357 18.6141471,2.3000003 C18.1004965,2.04456703 17.6571423,1.89179427 17.6261702,1.95582659 C17.592762,2.02194692 17.982872,2.2808602 18.4972185,2.53629347" id="Fill-69" fill="#FFFFFF"></path>
                <path d="M16.2954116,1.51908442 C16.785398,1.65410909 17.192908,1.72614545 17.2106561,1.68090522 C17.2106561,1.61269688 15.5510359,1.0931303 15.4233192,1.18674277 C15.3850391,1.21493091 15.8026411,1.38127573 16.2954116,1.51908442" id="Fill-70" fill="#FFFFFF"></path>
                <path id="Fill-71" fill="#FFFFFF"></path>
                <path d="M8.30424787,24.9187207 C8.94143904,25.17659 9.45334958,25.5325957 9.34894906,25.6554404 C9.26125263,25.7581009 7.06710172,24.8258042 7.04030559,24.7214037 C7.0013294,24.5651509 7.66775271,24.6598074 8.30424787,24.9187207" id="Fill-72" fill="#FFFFFF"></path>
                <path id="Fill-73" fill="#FFFFFF"></path>
                <path id="Fill-74" fill="#FFFFFF"></path>
                <path d="M40.9147939,4.50841927 L41.2607076,4.50841927 L49.9120306,24.9469088 L47.365006,24.9469088 L45.4931047,20.4228863 L36.2905469,20.4228863 L34.3928935,24.9469088 L31.9224292,24.9469088 L40.9147939,4.50841927 L40.9147939,4.50841927 Z M41.0216304,9.34842732 L40.9697782,9.34842732 L37.1480232,18.3950803 L44.6606845,18.3950803 L41.0216304,9.34842732 L41.0216304,9.34842732 Z" id="Fill-75" fill="#FFFFFF"></path>
                <polyline id="Fill-76" fill="#FFFFFF" points="51.6527353 5.29351117 53.6805413 4.73810041 53.6805413 24.9469088 51.6527353 24.9469088 51.6527353 5.29351117"></polyline>
                <polyline id="Fill-77" fill="#FFFFFF" points="56.8522291 5.29351117 58.8800352 4.73810041 58.8800352 24.9469088 56.8522291 24.9469088 56.8522291 5.29351117"></polyline>
                <path d="M62.6920461,21.7487729 C63.4980181,22.7360538 64.3815945,23.3868171 65.8111856,23.3868171 C67.0841759,23.3868171 68.4880149,22.8404544 68.4880149,21.5149158 C68.4880149,20.2154773 67.1885765,19.8782636 65.889138,19.5915102 C63.5756225,19.0712476 61.5996687,18.5777812 61.5996687,16.0561607 C61.5996687,13.6900969 63.8870841,12.4682628 66.1497913,12.4682628 C67.8650918,12.4682628 69.4509357,13.1183301 70.2830078,14.6773778 L68.5924154,15.7958554 C68.0738929,14.9380311 67.2143286,14.3401641 66.0192907,14.3401641 C64.9011611,14.3401641 63.6274748,14.8854828 63.6274748,16.0297125 C63.6274748,17.0444856 65.083166,17.4854038 66.695806,17.7975613 C68.8530687,18.2134234 70.6731178,18.9925992 70.6731178,21.4373114 C70.6731178,24.1934851 68.2284056,25.2583704 65.8111856,25.2583704 C63.7569314,25.2583704 62.2761841,24.7120077 61.0801021,22.9967071 L62.6920461,21.7487729" id="Fill-78" fill="#FFFFFF"></path>
                <path d="M81.6974646,15.8216075 C80.8396403,14.7817783 79.8516634,14.3408601 78.6287853,14.3408601 C75.8987117,14.3408601 74.5216689,16.3676222 74.5216689,18.8641866 C74.5216689,21.359707 76.159365,23.3864691 78.6287853,23.3864691 C79.9543239,23.3864691 80.9684009,22.9187548 81.7232167,21.8789256 L83.2300642,23.3099087 C82.0614744,24.6608514 80.3980261,25.2583704 78.6287853,25.2583704 C74.8599266,25.2583704 72.3376101,22.6065972 72.3376101,18.8641866 C72.3376101,15.1725843 74.8856787,12.4682628 78.6287853,12.4682628 C80.4227342,12.4682628 82.0865305,13.0661298 83.3083646,14.3923644 L81.6974646,15.8216075" id="Fill-79" fill="#FFFFFF"></path>
                <path d="M85.9876299,15.6657027 C85.9876299,14.5475732 85.8832294,13.5870884 85.8832294,12.7804204 L87.8066349,12.7804204 C87.8066349,13.4301396 87.8591832,14.105959 87.8591832,14.7821263 L87.9099914,14.7821263 C88.4563541,13.5870884 89.9645936,12.4689588 91.9656036,12.4689588 C92.2262569,12.4689588 92.5126623,12.4936669 92.7976757,12.5980675 L92.6682191,14.6519737 C92.3299614,14.5475732 91.9405475,14.4957209 91.5758416,14.4957209 C89.1071174,14.4957209 88.0143919,16.2378176 88.0143919,19.0190474 L88.0143919,24.9472568 L85.9876299,24.9472568 L85.9876299,15.6657027" id="Fill-80" fill="#FFFFFF"></path>
                <path d="M96.3326773,6.54109737 C97.1647494,6.54109737 97.8155126,7.21656873 97.8155126,8.02254073 C97.8155126,8.881061 97.1905015,9.5043321 96.3326773,9.5043321 C95.475201,9.5043321 94.8512339,8.881061 94.8512339,8.02254073 C94.8512339,7.21656873 95.5019972,6.54109737 96.3326773,6.54109737 L96.3326773,6.54109737 Z M95.3189482,12.7797244 L97.3460583,12.7797244 L97.3460583,24.9465608 L95.3189482,24.9465608 L95.3189482,12.7797244 Z" id="Fill-81" fill="#FFFFFF"></path>
                <path d="M100.328433,12.7800724 L102.356239,12.7800724 L102.356239,14.5472252 L102.408787,14.5472252 C103.525525,13.2484827 105.008708,12.4686108 106.775861,12.4686108 C110.59866,12.4686108 113.171785,15.1729323 113.171785,18.8641866 C113.171785,22.5032407 110.493564,25.2583704 107.087671,25.2583704 C104.904308,25.2583704 103.162907,24.166689 102.408787,22.7896461 L102.356239,22.7896461 L102.356239,30.8740743 L100.328433,30.8740743 L100.328433,12.7800724 L100.328433,12.7800724 Z M106.672505,23.3868171 C109.298178,23.3868171 110.987726,21.4108633 110.987726,18.8641866 C110.987726,16.3161179 109.298178,14.3401641 106.672505,14.3401641 C104.046832,14.3401641 102.356239,16.3161179 102.356239,18.8641866 C102.356239,21.4108633 104.046832,23.3868171 106.672505,23.3868171 L106.672505,23.3868171 Z" id="Fill-82" fill="#FFFFFF"></path>
                <path d="M122.005461,14.4960689 L118.419303,14.4960689 L118.419303,20.5787911 C118.419303,22.1395789 118.445751,23.3864691 120.239004,23.3864691 C120.836871,23.3864691 121.48659,23.2570124 122.031909,22.971651 L122.109861,24.8164082 C121.408986,25.1289137 120.498613,25.2583704 119.744494,25.2583704 C116.859907,25.2583704 116.391149,23.6989746 116.391149,21.1783981 L116.391149,14.4960689 L113.813848,14.4960689 L115.542721,12.7797244 L116.391149,12.7797244 L116.391149,10.2751559 L118.419303,8.21220168 L118.419303,12.7797244 L122.005461,12.7797244 L122.005461,14.4960689" id="Fill-83" fill="#FFFFFF"></path>
                <path d="M125.202901,21.7487729 C126.009569,22.7360538 126.892101,23.3868171 128.32378,23.3868171 C129.596771,23.3868171 130.999566,22.8404544 130.999566,21.5149158 C130.999566,20.2154773 129.700823,19.8782636 128.402429,19.5915102 C126.087173,19.0712476 124.111219,18.5777812 124.111219,16.0561607 C124.111219,13.6900969 126.399331,12.4682628 128.660298,12.4682628 C130.375598,12.4682628 131.96179,13.1183301 132.794558,14.6773778 L131.103966,15.7958554 C130.585443,14.9380311 129.727619,14.3401641 128.530841,14.3401641 C127.412712,14.3401641 126.139721,14.8854828 126.139721,16.0297125 C126.139721,17.0444856 127.595413,17.4854038 129.206661,17.7975613 C131.363575,18.2134234 133.183624,18.9925992 133.183624,21.4373114 C133.183624,24.1934851 130.740652,25.2583704 128.32378,25.2583704 C126.269178,25.2583704 124.786691,24.7120077 123.591653,22.9967071 L125.202901,21.7487729" id="Fill-84" fill="#FFFFFF"></path>
                <path d="M137.760543,12.4449467 C138.68414,12.4449467 139.435475,13.1962824 139.435475,14.118835 C139.435475,15.0417356 138.68414,15.7930713 137.760543,15.7930713 C136.838687,15.7930713 136.087699,15.0417356 136.087699,14.118835 C136.087699,13.1962824 136.838687,12.4449467 137.760543,12.4449467 L137.760543,12.4449467 Z M137.760543,15.4962259 C138.521623,15.4962259 139.13863,14.8799148 139.13863,14.118835 C139.13863,13.3581032 138.521623,12.7421402 137.760543,12.7421402 C137.000855,12.7421402 136.384544,13.3581032 136.384544,14.118835 C136.384544,14.8799148 137.000855,15.4962259 137.760543,15.4962259 L137.760543,15.4962259 Z M137.117784,13.1517382 L137.8552,13.1517382 C138.31491,13.1517382 138.531019,13.3581032 138.531019,13.7273331 C138.531019,14.0607187 138.333006,14.2221915 138.071309,14.2542077 L138.571387,15.0640077 L138.202157,15.0640077 L137.725395,14.2810038 L137.468918,14.2810038 L137.468918,15.0640077 L137.117784,15.0640077 L137.117784,13.1517382 L137.117784,13.1517382 Z M137.468918,13.9838104 L137.725395,13.9838104 C137.941504,13.9838104 138.179537,13.9702383 138.179537,13.713761 C138.179537,13.4572837 137.941504,13.4444077 137.725395,13.4485837 L137.468918,13.4485837 L137.468918,13.9838104 L137.468918,13.9838104 Z" id="Fill-85" fill="#FFFFFF"></path>
                <path d="M12.8884747,7.53603432 C11.7035288,7.53603432 10.743044,8.44745084 10.743044,9.57080043 C10.743044,10.693106 11.7035288,11.6041745 12.8884747,11.6041745 C14.0727245,11.6041745 15.0342533,10.693106 15.0342533,9.57080043 C15.0342533,8.44745084 14.0727245,7.53603432 12.8884747,7.53603432" id="Fill-86" fill="#3F454F"></path>
                <path d="M6.60947945,18.7959783 C7.30826692,18.4570246 7.49723186,17.4053634 7.03299756,16.4497506 C6.56841525,15.4951819 5.62567856,14.9944074 4.9282831,15.3340571 C4.22984363,15.6733587 4.03948668,16.722932 4.50476499,17.6802847 C4.9689993,18.6355495 5.91103998,19.135976 6.60947945,18.7959783" id="Fill-87" fill="#3F454F"></path>
                <path d="M8.94874707,15.7095509 C10.0710527,15.7095509 10.9807292,14.7365381 10.9807292,13.5366281 C10.9807292,12.3370662 10.0710527,11.3640533 8.94874707,11.3640533 C7.82539749,11.3640533 6.91572097,12.3370662 6.91572097,13.5366281 C6.91572097,14.7365381 7.82539749,15.7095509 8.94874707,15.7095509" id="Fill-88" fill="#3F454F"></path>
                <path d="M3.10440603,18.0944068 C2.74874827,18.33244 2.86150083,19.1217079 3.35496728,19.8566875 C3.84947774,20.5899272 4.53852116,20.9925652 4.89417893,20.752792 C5.24844469,20.5137148 5.13569213,19.7254909 4.64118167,18.9915552 C4.14771522,18.2572716 3.45867179,17.8556776 3.10440603,18.0944068" id="Fill-89" fill="#3F454F"></path>
                <path d="M19.1288417,18.7959783 C19.8262371,19.135976 20.7693218,18.6355495 21.2335561,17.6802847 C21.6995304,16.722932 21.5091735,15.6733587 20.810038,15.3340571 C20.1129905,14.9944074 19.1699059,15.4951819 18.7046276,16.4497506 C18.2410892,17.4053634 18.4297062,18.4570246 19.1288417,18.7959783" id="Fill-90" fill="#3F454F"></path>
                <path d="M16.789922,15.7095509 C17.9132716,15.7095509 18.8236441,14.7365381 18.8236441,13.5366281 C18.8236441,12.3370662 17.9132716,11.3640533 16.789922,11.3640533 C15.6665725,11.3640533 14.7572439,12.3370662 14.7572439,13.5366281 C14.7572439,14.7365381 15.6665725,15.7095509 16.789922,15.7095509" id="Fill-91" fill="#3F454F"></path>
                <path d="M22.3826578,19.8563395 C22.8761243,19.1217079 22.9899208,18.333136 22.6349591,18.0940588 C22.2782573,17.8553296 21.5909539,18.2572716 21.0964434,18.9912072 C20.602977,19.7254909 20.4902244,20.5137148 20.8441422,20.752792 C21.200148,20.9922172 21.8881474,20.5899272 22.3826578,19.8563395" id="Fill-92" fill="#3F454F"></path>
                <path d="M23.826169,19.2835287 C23.6890563,19.1982683 23.7551766,18.6606056 24.0015619,18.0241104 C24.2479471,17.3876153 24.5862048,16.8875368 24.7205334,16.9776692 C25.1179514,17.2424985 24.0541101,19.4255134 23.826169,19.2835287" id="Fill-93" fill="#8CD600"></path>
                <path d="M1.83071971,7.05231191 C1.72631919,7.08502407 1.01952767,8.66738794 1.06233189,8.69836009 C1.09539205,8.7209802 1.33377324,8.26822995 1.49559404,7.92684026 C1.67446693,7.55099839 1.88048395,7.03386782 1.83071971,7.05231191" id="Fill-94" fill="#8CD600"></path>
                <path d="M23.9023814,7.0505719 C24.0071299,7.08293606 24.7135734,8.66669193 24.6707692,8.69662008 C24.637361,8.71924019 24.3993278,8.26648995 24.237507,7.92510025 C24.0586342,7.54995438 23.8522691,7.03212781 23.9023814,7.0505719" id="Fill-95" fill="#8CD600"></path>
                <path d="M9.44151752,1.17212669 C8.95153109,1.30715136 8.54367306,1.37918772 8.52627298,1.3339475 C8.52627298,1.26539116 10.1855452,0.746172577 10.3136099,0.839437041 C10.35189,0.867973182 9.93428797,1.03501401 9.44151752,1.17212669" id="Fill-96" fill="#8CD600"></path>
                <path d="M3.62397262,4.70225623 C3.69496497,4.74540845 3.44683974,5.17588659 3.08213392,5.64603692 C2.71777611,6.11514326 2.34367425,6.47532505 2.30191405,6.40328869 C2.19507752,6.22058778 3.42108761,4.57941162 3.62397262,4.70225623" id="Fill-97" fill="#8CD600"></path>
                <path id="Fill-98" fill="#8CD600"></path>
                <polyline id="Fill-99" fill="#8CD600" points="12.8689866 0.566951687 12.8533265 0.566951687 12.8749026 0.566951687 12.8689866 0.566951687"></polyline>
                <path id="Fill-100" fill="#8CD600"></path>
                <path d="M4.53399714,9.40027958 C4.06871883,10.3565883 4.25837977,11.4061615 4.95751524,11.7461592 C5.65630271,12.0861569 6.59764739,11.5857304 7.0629257,10.6294217 C7.52750801,9.67415694 7.33854307,8.62353972 6.6394076,8.28458604 C5.94131613,7.94458835 4.99823144,8.44397083 4.53399714,9.40027958" id="Fill-101" fill="#8CD600"></path>
                <path d="M1.56971841,12.303658 C1.88465997,12.3746504 2.28729797,11.7802634 2.46999888,10.9749874 C2.65235179,10.1700594 2.54621126,9.46013588 2.2319657,9.38809952 C1.91806814,9.31815117 1.51543014,9.91184212 1.33272923,10.7171181 C1.14968032,11.5220461 1.25651685,12.2326657 1.56971841,12.303658" id="Fill-102" fill="#8CD600"></path>
                <path d="M12.8884747,19.4383895 C14.0727245,19.4383895 15.0342533,18.5287129 15.0342533,17.4036233 C15.0342533,16.2802738 14.0727245,15.3709452 12.8884747,15.3709452 C11.7035288,15.3709452 10.743044,16.2802738 10.743044,17.4036233 C10.743044,18.5287129 11.7035288,19.4383895 12.8884747,19.4383895" id="Fill-103" fill="#8CD600"></path>
                <path d="M2.48600696,16.1838773 C2.28729797,15.3838213 1.87317592,14.7956984 1.55997436,14.8736508 C1.2464248,14.9519512 1.15385634,15.6636147 1.35360933,16.4647147 C1.55057831,17.2654667 1.96574438,17.8525456 2.27790193,17.7749412 C2.59214749,17.6980328 2.68297594,16.9849773 2.48600696,16.1838773" id="Fill-104" fill="#8CD600"></path>
                <path d="M2.22430966,13.5609883 C2.22430966,14.5287811 2.68123593,15.313873 3.24882675,15.313873 C3.81432956,15.313873 4.27369184,14.5287811 4.27369184,13.5609883 C4.27369184,12.5931954 3.81432956,11.8094956 3.24882675,11.8094956 C2.68123593,11.8094956 2.22430966,12.5931954 2.22430966,13.5609883" id="Fill-105" fill="#8CD600"></path>
                <path d="M0.80933463,12.3301061 C0.613409657,12.3301061 0.455416872,12.913705 0.455416872,13.6337206 C0.455416872,14.3537362 0.613409657,14.9373351 0.80933463,14.9373351 C1.00560761,14.9373351 1.16360039,14.3537362 1.16360039,13.6337206 C1.16360039,12.913705 1.00560761,12.3301061 0.80933463,12.3301061" id="Fill-106" fill="#8CD600"></path>
                <path d="M7.68410879,7.36446946 C8.04985861,8.06186493 9.11230789,8.22542574 10.0550446,7.72847927 C10.9981293,7.23257681 11.4647996,6.26548 11.0990498,5.56808454 C10.7315599,4.87138508 9.67015466,4.70852027 8.72741797,5.20372673 C7.78433329,5.7006732 7.31661896,6.667074 7.68410879,7.36446946" id="Fill-107" fill="#8CD600"></path>
                <path d="M6.56389122,4.07689713 C5.83308759,4.57627961 5.43323361,5.26288702 5.67196279,5.61123675 C5.90999598,5.95923848 6.69439187,5.83743788 7.42589151,5.33805539 C8.15669514,4.83867291 8.55654913,4.1520655 8.31955995,3.80371577 C8.08152677,3.45571404 7.29643486,3.57751465 6.56389122,4.07689713" id="Fill-108" fill="#8CD600"></path>
                <path d="M3.3793274,7.21970074 C2.89003697,7.95711641 2.78389644,8.74708033 3.13990221,8.98372151 C3.49660398,9.22001468 4.18216739,8.81320066 4.67215382,8.07404499 C5.15831224,7.33662932 5.26688878,6.5463174 4.909491,6.31106823 C4.55313723,6.07442705 3.86722582,6.48124107 3.3793274,7.21970074" id="Fill-109" fill="#8CD600"></path>
                <path d="M0.974635452,10.1860675 C1.12392819,10.2445318 1.44582979,9.77542544 1.69221502,9.13893028 C1.93755624,8.50173911 2.01794464,7.93971632 1.86656388,7.88020803 C1.71796715,7.82174374 1.39467354,8.29119807 1.14933232,8.92769323 C0.903643099,9.5648844 0.823602701,10.1286472 0.974635452,10.1860675" id="Fill-110" fill="#8CD600"></path>
                <path d="M10.9887332,21.4390514 C11.355527,20.7416559 10.8885087,19.7752551 9.94577203,19.2793527 C9.00268734,18.7841462 7.94128207,18.946315 7.57448825,19.6433625 C7.20734642,20.3400619 7.67471274,21.3071587 8.61779743,21.8030612 C9.56157812,22.2993117 10.6229834,22.1364469 10.9887332,21.4390514" id="Fill-111" fill="#8CD600"></path>
                <path d="M1.91215211,19.2817887 C2.04926479,19.1965283 1.98314446,18.6588656 1.73675924,18.0223704 C1.49037401,17.3862233 1.15211633,16.8857968 1.01778767,16.9759292 C0.620369691,17.2407585 1.68421098,19.4237734 1.91215211,19.2817887" id="Fill-112" fill="#8CD600"></path>
                <path d="M3.53558018,6.51082122 C3.96814633,5.93139834 4.18843142,5.36589553 4.02904663,5.24548693 C3.86722582,5.12612234 3.38837545,5.49848419 2.9558093,6.07825507 C2.52393915,6.65698195 2.30365406,7.22318076 2.46408285,7.34254535 C2.62346764,7.46121394 3.10440603,7.0895481 3.53558018,6.51082122" id="Fill-113" fill="#8CD600"></path>
                <path d="M11.138374,3.90568028 C11.138374,4.46770307 11.9210298,4.92288933 12.8888227,4.92288933 C13.8545275,4.92288933 14.6396194,4.46770307 14.6396194,3.90568028 C14.6396194,3.34365748 13.8545275,2.88742722 12.8888227,2.88742722 C11.9210298,2.88742722 11.138374,3.34365748 11.138374,3.90568028" id="Fill-114" fill="#8CD600"></path>
                <path d="M7.3444591,21.6934407 C6.61435148,21.1940582 5.82856357,21.0719096 5.58983438,21.4202593 C5.3524972,21.768609 5.7533952,22.4552164 6.48350282,22.9535549 C7.21569846,23.4539814 8.00009436,23.575782 8.23812754,23.2277803 C8.47616073,22.8794306 8.07595874,22.1928231 7.3444591,21.6934407" id="Fill-115" fill="#8CD600"></path>
                <path d="M2.42510666,19.6771186 C2.26572187,19.7982232 2.48705097,20.3637261 2.91857311,20.9424529 C3.35148726,21.5218758 3.83068564,21.8935417 3.99111444,21.7755691 C4.15154324,21.6555085 3.93091014,21.0893097 3.49834399,20.5095388 C3.06577784,19.9318559 2.58623146,19.5584501 2.42510666,19.6771186" id="Fill-116" fill="#8CD600"></path>
                <path d="M14.6399674,23.0885796 C14.6399674,22.5272528 13.8541794,22.0706745 12.8888227,22.0706745 C11.9206818,22.0706745 11.138026,22.5272528 11.138026,23.0885796 C11.138026,23.6509504 11.9206818,24.1068327 12.8888227,24.1068327 C13.8541794,24.1068327 14.6399674,23.6509504 14.6399674,23.0885796" id="Fill-117" fill="#8CD600"></path>
                <path d="M10.0359045,2.00802685 C9.2365445,2.19838379 8.65016159,2.60450181 8.72358996,2.91596336 C8.79701832,3.2267289 9.50450584,3.32416939 10.3031698,3.13381244 C11.1014858,2.9434555 11.6885647,2.53698948 11.6151363,2.22622393 C11.540664,1.91545839 10.8324804,1.8176699 10.0359045,2.00802685" id="Fill-118" fill="#8CD600"></path>
                <path d="M5.42070554,3.59317472 C4.84615469,4.02922089 4.47762086,4.50946328 4.59698545,4.66571605 C4.71391403,4.82162083 5.27628483,4.5943757 5.84909567,4.15832953 C6.42364653,3.72332737 6.79183236,3.24238898 6.67246776,3.0861362 C6.55414718,2.92988343 5.99351639,3.15712856 5.42070554,3.59317472" id="Fill-119" fill="#8CD600"></path>
                <path d="M10.139261,23.8162512 C9.34164103,23.6258943 8.63450151,23.7236828 8.55933314,24.0347963 C8.48660078,24.3455618 9.07193969,24.7523759 9.87129966,24.9427328 C10.6696156,25.1316977 11.3753631,25.0346053 11.4515755,24.7238397 C11.5256999,24.4134222 10.938621,24.0066082 10.139261,23.8162512" id="Fill-120" fill="#8CD600"></path>
                <path d="M6.6394076,23.9070797 C6.7594682,23.7515229 6.39058636,23.2723245 5.81673151,22.8355823 C5.24392067,22.3995362 4.68154987,22.172291 4.56288128,22.3285438 C4.47135683,22.4503444 4.67250183,22.765286 5.03337962,23.1028477 C5.32465707,23.3332248 5.62533056,23.5521179 5.9360961,23.7567429 C6.28200982,23.9422278 6.56006321,24.0114802 6.6394076,23.9070797" id="Fill-121" fill="#8CD600"></path>
                <path d="M11.5893842,1.48010822 C11.5893842,1.67220518 12.1715911,1.82845796 12.8881266,1.82845796 C13.6064022,1.82845796 14.1875651,1.67220518 14.1875651,1.48010822 C14.1875651,1.28731527 13.6064022,1.13106249 12.8881266,1.13106249 C12.1715911,1.13106249 11.5893842,1.28731527 11.5893842,1.48010822" id="Fill-122" fill="#8CD600"></path>
                <path d="M7.19969038,2.55821758 C7.25711067,2.70785832 7.82330948,2.62781793 8.46467667,2.37899669 C9.10465185,2.13017545 9.5772382,1.80653385 9.51877391,1.6572411 C9.45961361,1.50690436 8.8941108,1.58798876 8.25343962,1.83576599 C7.61207243,2.08493523 7.14122609,2.40788083 7.19969038,2.55821758" id="Fill-123" fill="#8CD600"></path>
                <path d="M5.05704374,3.69861925 C5.51988604,3.32973741 5.85292369,2.97477565 5.79863542,2.90761132 C5.74608716,2.84183899 5.32674508,3.08648421 4.86320677,3.45571404 C4.39897247,3.82563988 4.06906683,4.17990564 4.12091909,4.24672197 C4.17590336,4.3131903 4.59420144,4.06854509 5.05704374,3.69861925" id="Fill-124" fill="#8CD600"></path>
                <path d="M14.1879131,25.4828315 C14.1879131,25.2907345 13.6060542,25.1362218 12.8884747,25.1362218 C12.1719391,25.1362218 11.5897322,25.2907345 11.5897322,25.4828315 C11.5897322,25.6735364 12.1670671,25.8294412 12.8794266,25.8304852 C12.9702551,25.8304852 13.0603875,25.8252652 13.15052,25.8238732 C13.7428189,25.791161 14.1879131,25.6509163 14.1879131,25.4828315" id="Fill-125" fill="#8CD600"></path>
                <path id="Fill-126" fill="#8CD600"></path>
                <path id="Fill-127" fill="#8CD600"></path>
                <path d="M7.24110259,2.18829174 C7.75579715,1.93285847 8.14660309,1.67394519 8.11319492,1.60817286 C8.08048276,1.54379254 7.63782456,1.6965653 7.12417401,1.95199857 C6.60982745,2.20777984 6.22076152,2.46738913 6.25242968,2.53246545 C6.28583784,2.59754178 6.72849604,2.44407301 7.24110259,2.18829174" id="Fill-128" fill="#8CD600"></path>
                <path id="Fill-129" fill="#8CD600"></path>
                <path d="M19.0985655,8.28458604 C18.400126,8.62353972 18.2104651,9.67415694 18.6757434,10.6297697 C19.1403257,11.5860784 20.0823664,12.0854609 20.7815019,11.7465072 C21.4785493,11.4065095 21.6682103,10.3565883 21.202932,9.40027958 C20.7404377,8.44397083 19.796657,7.94458835 19.0985655,8.28458604" id="Fill-130" fill="#8CD600"></path>
                <path d="M23.5070514,9.38809952 C23.1921098,9.46083188 23.0859693,10.1697114 23.2679742,10.9749874 C23.4510231,11.7799154 23.8536611,12.3746504 24.1675587,12.303658 C24.4807603,12.2326657 24.5886408,11.5227421 24.4048959,10.7174661 C24.223587,9.91184212 23.820253,9.31780317 23.5070514,9.38809952" id="Fill-131" fill="#8CD600"></path>
                <path d="M24.1790428,14.8733028 C23.8668852,14.7956984 23.4517191,15.3838213 23.2530102,16.1838773 C23.0549972,16.9856733 23.1475656,17.6980328 23.4600712,17.7756372 C23.7715327,17.8532416 24.1866988,17.2654667 24.3854078,16.4643667 C24.5834208,15.6636147 24.4905043,14.9519512 24.1790428,14.8733028" id="Fill-132" fill="#8CD600"></path>
                <path d="M22.4898424,15.314221 C23.0560412,15.314221 23.5147075,14.5291291 23.5147075,13.5613363 C23.5147075,12.5931954 23.0560412,11.8098436 22.4898424,11.8098436 C21.9219035,11.8098436 21.4635853,12.5931954 21.4635853,13.5613363 C21.4635853,14.5291291 21.9219035,15.314221 22.4898424,15.314221" id="Fill-133" fill="#8CD600"></path>
                <path d="M24.9289865,12.3301061 C24.7320175,12.3301061 24.5733287,12.913705 24.5733287,13.6337206 C24.5733287,14.3537362 24.7320175,14.9373351 24.9289865,14.9373351 C25.1235194,14.9373351 25.2832522,14.3537362 25.2832522,13.6337206 C25.2832522,12.913705 25.1235194,12.3301061 24.9289865,12.3301061" id="Fill-134" fill="#8CD600"></path>
                <path d="M14.6399674,5.56773654 C14.2724775,6.265132 14.7401919,7.23292481 15.6832765,7.72917528 C16.6260132,8.22542574 17.6867225,8.06151693 18.0552563,7.36412146 C18.4199621,6.666726 17.9532918,5.7006732 17.0119471,5.20372673 C16.0681665,4.70817226 15.0057172,4.87103707 14.6399674,5.56773654" id="Fill-135" fill="#8CD600"></path>
                <path d="M17.4201532,3.80371577 C17.18212,4.1520655 17.580234,4.83832491 18.3110376,5.33805539 C19.0442772,5.83743788 19.8286731,5.95923848 20.0660103,5.61193275 C20.3036955,5.26288702 19.9045375,4.57627961 19.1730379,4.07689713 C18.4422342,3.57751465 17.6571423,3.45536604 17.4201532,3.80371577" id="Fill-136" fill="#8CD600"></path>
                <path d="M22.5980709,8.98337351 C22.9547727,8.74673233 22.8472401,7.95676841 22.3586457,7.21935274 C21.8707473,6.48089307 21.1851839,6.07512306 20.8291781,6.31072023 C20.4717803,6.5463174 20.5786169,7.33628132 21.0665153,8.07439299 C21.5558057,8.81285266 22.2399771,9.21966668 22.5980709,8.98337351" id="Fill-137" fill="#8CD600"></path>
                <path d="M24.7636857,10.1860675 C24.9140224,10.1286472 24.835374,9.5648844 24.5889888,8.92769323 C24.3426036,8.29119807 24.020354,7.82174374 23.8717572,7.88020803 C23.7203765,7.93971632 23.7997209,8.50173911 24.0454101,9.13893028 C24.2928393,9.77542544 24.6150889,10.2445318 24.7636857,10.1860675" id="Fill-138" fill="#8CD600"></path>
                <path d="M18.1634849,19.6430145 C17.797735,18.945619 16.7352858,18.7837982 15.7922011,19.2790047 C14.8494644,19.7759511 14.3834901,20.7423519 14.7492399,21.4387034 C15.1167297,22.1360989 16.177439,22.3000077 17.1201757,21.8030612 C18.0632604,21.3068107 18.5309747,20.3404099 18.1634849,19.6430145" id="Fill-139" fill="#8CD600"></path>
                <path d="M23.2759783,7.34254535 C23.4353631,7.22318076 23.215078,6.65698195 22.7832078,6.07755907 C22.3506417,5.49883219 21.8703993,5.12612234 21.7099705,5.24548693 C21.5505857,5.36519953 21.7708708,5.93139834 22.2034369,6.51082122 C22.6346111,7.0895481 23.1148535,7.46121394 23.2759783,7.34254535" id="Fill-140" fill="#8CD600"></path>
                <path d="M18.393514,21.6934407 C17.6627104,22.1928231 17.2611164,22.8794306 17.4998456,23.2277803 C17.7378787,23.575782 18.5240147,23.4539814 19.2537743,22.9535549 C19.9863179,22.4552164 20.3854759,21.768609 20.1474427,21.4202593 C19.9094095,21.0719096 19.1243176,21.1940582 18.393514,21.6934407" id="Fill-141" fill="#8CD600"></path>
                <path d="M22.2399771,20.5098868 C21.807411,21.0886137 21.5867779,21.6555085 21.7465107,21.7752211 C21.9076355,21.8935417 22.3868338,21.5211798 22.818704,20.9424529 C23.2512701,20.3637261 23.4712072,19.7982232 23.3125184,19.6771186 C23.1520897,19.5584501 22.6718473,19.9311599 22.2399771,20.5098868" id="Fill-142" fill="#8CD600"></path>
                <path d="M22.1115645,4.70051623 C22.0405721,4.74401644 22.2886974,5.17414658 22.6537512,5.64429692 C23.017761,6.11375125 23.3922108,6.47358504 23.4339711,6.40189668 C23.5408076,6.21884777 22.3147975,4.57767162 22.1115645,4.70051623" id="Fill-143" fill="#8CD600"></path>
                <path d="M15.7034606,2.00802685 C14.9047967,1.8176699 14.1976572,1.91545839 14.1242288,2.22622393 C14.0497564,2.53698948 14.6368353,2.9434555 15.4344553,3.13381244 C16.2327713,3.32416939 16.9402588,3.2267289 17.0147312,2.91596336 C17.0888555,2.60450181 16.5010806,2.19838379 15.7034606,2.00802685" id="Fill-144" fill="#8CD600"></path>
                <path d="M20.3179636,3.59317472 C19.7451527,3.15712856 19.1838259,2.92988343 19.0651573,3.0861362 C18.9468368,3.24238898 19.3150226,3.72332737 19.8888774,4.15832953 C20.4616883,4.5943757 21.0230151,4.82162083 21.1406397,4.66571605 C21.2600042,4.50946328 20.8911224,4.02922089 20.3179636,3.59317472" id="Fill-145" fill="#8CD600"></path>
                <path d="M15.5987121,23.8162512 C14.7993521,24.0066082 14.2122732,24.4134222 14.2874416,24.7238397 C14.361914,25.0346053 15.0683575,25.1316977 15.8659774,24.9427328 C16.6653374,24.7523759 17.2524163,24.3455618 17.178292,24.0347963 C17.1045156,23.7236828 16.3963321,23.6258943 15.5987121,23.8162512" id="Fill-146" fill="#8CD600"></path>
                <path d="M21.1750918,22.3285438 C21.0553792,22.172291 20.4950964,22.4002322 19.9222856,22.8352343 C19.3484307,23.2723245 18.9792009,23.7515229 19.0985655,23.9067317 C19.1779099,24.0121762 19.4580513,23.9418798 19.804661,23.7550029 C20.1119465,23.5528139 20.40914,23.3374008 20.6972855,23.1091117 C21.0612953,22.769462 21.2669643,22.4513884 21.1750918,22.3285438" id="Fill-147" fill="#8CD600"></path>
                <path d="M17.2739924,2.37864869 C17.9146636,2.62816593 18.4819064,2.70751032 18.5393267,2.55821758 C18.597095,2.40788083 18.1259007,2.08528323 17.4852295,1.83646199 C16.8449063,1.58764076 16.2776635,1.50760036 16.2202432,1.6568931 C16.1614309,1.80722985 16.6333213,2.12947945 17.2739924,2.37864869" id="Fill-148" fill="#8CD600"></path>
                <path d="M20.6809294,3.69861925 C21.1437717,4.06854509 21.5631138,4.3131903 21.615662,4.24672197 C21.6689063,4.17990564 21.3372606,3.82563988 20.8747663,3.45571404 C20.411924,3.08648421 19.9918859,2.84183899 19.9382937,2.90761132 C19.8857454,2.97477565 20.2173911,3.32973741 20.6809294,3.69861925" id="Fill-149" fill="#8CD600"></path>
                <path d="M17.4344212,24.5675869 C16.7972301,24.8254562 16.3295157,25.1546659 16.38972,25.3043066 L18.6980155,24.37027 C18.6371152,24.2209772 18.0709164,24.3086737 17.4344212,24.5675869" id="Fill-150" fill="#8CD600"></path>
                <path d="M17.4344212,24.5644549 C16.7972301,24.8223242 16.2853195,25.17833 16.38972,25.3008266 C16.4774165,25.4038351 18.6712194,24.4715385 18.6980155,24.3671379 C18.7373397,24.2112332 18.0709164,24.3055416 17.4344212,24.5644549" id="Fill-151" fill="#8CD600"></path>
                <path id="Fill-152" fill="#8CD600"></path>
                <path d="M18.4972185,2.18829174 C19.0108691,2.44407301 19.4535273,2.59754178 19.4858914,2.53246545 C19.5186036,2.46738913 19.1284937,2.20777984 18.6141471,1.95199857 C18.1004965,1.6965653 17.6571423,1.54379254 17.6261702,1.60817286 C17.592762,1.67394519 17.982872,1.93285847 18.4972185,2.18829174" id="Fill-153" fill="#8CD600"></path>
                <path d="M16.2954116,1.17073469 C16.785398,1.30645536 17.192908,1.37814372 17.2106561,1.33290349 C17.2106561,1.26469515 15.5510359,0.745128572 15.4233192,0.838741037 C15.3850391,0.866929177 15.8026411,1.033274 16.2954116,1.17073469" id="Fill-154" fill="#8CD600"></path>
                <path id="Fill-155" fill="#8CD600"></path>
                <path d="M8.30424787,24.570719 C8.94143904,24.8285882 9.45334958,25.184594 9.34894906,25.3070906 C9.26125263,25.4100991 7.06710172,24.4778025 7.04030559,24.373402 C7.0013294,24.2174972 7.66775271,24.3118057 8.30424787,24.570719" id="Fill-156" fill="#8CD600"></path>
                <path id="Fill-157" fill="#8CD600"></path>
                <path id="Fill-158" fill="#8CD600"></path>
                <path d="M40.9147939,4.16041754 L41.2607076,4.16041754 L49.9120306,24.5989071 L47.365006,24.5989071 L45.4931047,20.0748846 L36.2905469,20.0748846 L34.3928935,24.5989071 L31.9224292,24.5989071 L40.9147939,4.16041754 L40.9147939,4.16041754 Z M41.0216304,9.00042559 L40.9697782,9.00042559 L37.1480232,18.0470785 L44.6606845,18.0470785 L41.0216304,9.00042559 L41.0216304,9.00042559 Z" id="Fill-159" fill="#3F454F"></path>
                <polyline id="Fill-160" fill="#3F454F" points="51.6527353 4.94550944 53.6805413 4.39009868 53.6805413 24.5989071 51.6527353 24.5989071 51.6527353 4.94550944"></polyline>
                <polyline id="Fill-161" fill="#3F454F" points="56.8522291 4.94550944 58.8800352 4.39009868 58.8800352 24.5989071 56.8522291 24.5989071 56.8522291 4.94550944"></polyline>
                <path d="M62.6920461,21.4007712 C63.4980181,22.3880521 64.3815945,23.0388153 65.8111856,23.0388153 C67.0841759,23.0388153 68.4880149,22.4924526 68.4880149,21.166914 C68.4880149,19.8674756 67.1885765,19.5299139 65.889138,19.2438565 C63.5756225,18.7232459 61.5996687,18.2297795 61.5996687,15.7085069 C61.5996687,13.3420952 63.8870841,12.1202611 66.1497913,12.1202611 C67.8650918,12.1202611 69.4509357,12.7703283 70.2830078,14.3293761 L68.5924154,15.4478536 C68.0738929,14.5900294 67.2143286,13.9921624 66.0192907,13.9921624 C64.9011611,13.9921624 63.6274748,14.5374811 63.6274748,15.6817108 C63.6274748,16.6964838 65.083166,17.137402 66.695806,17.4495596 C68.8530687,17.8657696 70.6731178,18.6449455 70.6731178,21.0893097 C70.6731178,23.8454834 68.2284056,24.9103686 65.8111856,24.9103686 C63.7569314,24.9103686 62.2761841,24.3640059 61.0801021,22.6487054 L62.6920461,21.4007712" id="Fill-162" fill="#3F454F"></path>
                <path d="M81.6974646,15.4736058 C80.8396403,14.4337766 79.8516634,13.9928584 78.6287853,13.9928584 C75.8987117,13.9928584 74.5216689,16.0196205 74.5216689,18.5161849 C74.5216689,21.0117053 76.159365,23.0384673 78.6287853,23.0384673 C79.9543239,23.0384673 80.9684009,22.570753 81.7232167,21.5309239 L83.2300642,22.961907 C82.0614744,24.3131977 80.3980261,24.9103686 78.6287853,24.9103686 C74.8599266,24.9103686 72.3376101,22.2585955 72.3376101,18.5161849 C72.3376101,14.8245825 74.8856787,12.1202611 78.6287853,12.1202611 C80.4227342,12.1202611 82.0865305,12.7181281 83.3083646,14.0447107 L81.6974646,15.4736058" id="Fill-163" fill="#3F454F"></path>
                <path d="M85.9876299,15.317701 C85.9876299,14.1995714 85.8832294,13.2390867 85.8832294,12.4324186 L87.8066349,12.4324186 C87.8066349,13.0821379 87.8591832,13.7576092 87.8591832,14.4341246 L87.9099914,14.4341246 C88.4563541,13.2390867 89.9645936,12.1209571 91.9656036,12.1209571 C92.2262569,12.1209571 92.5126623,12.1460132 92.7976757,12.2504137 L92.6682191,14.3039719 C92.3299614,14.1995714 91.9405475,14.1477192 91.5758416,14.1477192 C89.1071174,14.1477192 88.0143919,15.8898158 88.0143919,18.6710456 L88.0143919,24.5992551 L85.9876299,24.5992551 L85.9876299,15.317701" id="Fill-164" fill="#3F454F"></path>
                <path d="M96.3326773,6.19309564 C97.1647494,6.19309564 97.8155126,6.868567 97.8155126,7.674539 C97.8155126,8.53305927 97.1905015,9.15633037 96.3326773,9.15633037 C95.475201,9.15633037 94.8512339,8.53305927 94.8512339,7.674539 C94.8512339,6.868567 95.5019972,6.19309564 96.3326773,6.19309564 L96.3326773,6.19309564 Z M95.3189482,12.4317226 L97.3460583,12.4317226 L97.3460583,24.5985591 L95.3189482,24.5985591 L95.3189482,12.4317226 Z" id="Fill-165" fill="#3F454F"></path>
                <path d="M100.328433,12.4320706 L102.356239,12.4320706 L102.356239,14.1992234 L102.408787,14.1992234 C103.525525,12.900481 105.008708,12.1206091 106.775861,12.1206091 C110.59866,12.1206091 113.171785,14.8249305 113.171785,18.5161849 C113.171785,22.155239 110.493564,24.9103686 107.087671,24.9103686 C104.904308,24.9103686 103.162907,23.8186872 102.408787,22.4416444 L102.356239,22.4416444 L102.356239,30.5260726 L100.328433,30.5260726 L100.328433,12.4320706 L100.328433,12.4320706 Z M106.672505,23.0388153 C109.298178,23.0388153 110.987726,21.0628615 110.987726,18.5161849 C110.987726,15.9681162 109.298178,13.9921624 106.672505,13.9921624 C104.046832,13.9921624 102.356239,15.9681162 102.356239,18.5161849 C102.356239,21.0628615 104.046832,23.0388153 106.672505,23.0388153 L106.672505,23.0388153 Z" id="Fill-166" fill="#3F454F"></path>
                <path d="M122.005461,14.1480672 L118.419303,14.1480672 L118.419303,20.2307894 C118.419303,21.7915772 118.445751,23.0384673 120.239004,23.0384673 C120.836871,23.0384673 121.48659,22.9090107 122.031909,22.6236493 L122.109861,24.4684065 C121.408986,24.780912 120.498613,24.9103686 119.744494,24.9103686 C116.859907,24.9103686 116.391149,23.3509729 116.391149,20.8303964 L116.391149,14.1480672 L113.813848,14.1480672 L115.542721,12.4317226 L116.391149,12.4317226 L116.391149,9.9271542 L118.419303,7.86419995 L118.419303,12.4317226 L122.005461,12.4317226 L122.005461,14.1480672" id="Fill-167" fill="#3F454F"></path>
                <path d="M125.202901,21.4007712 C126.009569,22.3880521 126.892101,23.0388153 128.32378,23.0388153 C129.596771,23.0388153 130.999566,22.4924526 130.999566,21.166914 C130.999566,19.8674756 129.700823,19.5299139 128.402429,19.2438565 C126.087173,18.7232459 124.111219,18.2297795 124.111219,15.7085069 C124.111219,13.3420952 126.399331,12.1202611 128.660298,12.1202611 C130.375598,12.1202611 131.96179,12.7703283 132.794558,14.3293761 L131.103966,15.4478536 C130.585443,14.5900294 129.727619,13.9921624 128.530841,13.9921624 C127.412712,13.9921624 126.139721,14.5374811 126.139721,15.6817108 C126.139721,16.6964838 127.595413,17.137402 129.206661,17.4495596 C131.363575,17.8657696 133.183624,18.6449455 133.183624,21.0893097 C133.183624,23.8454834 130.740652,24.9103686 128.32378,24.9103686 C126.269178,24.9103686 124.786691,24.3640059 123.591653,22.6487054 L125.202901,21.4007712" id="Fill-168" fill="#3F454F"></path>
                <path d="M137.760543,12.096945 C138.68414,12.096945 139.435475,12.8482807 139.435475,13.7711813 C139.435475,14.6937339 138.68414,15.4450696 137.760543,15.4450696 C136.838687,15.4450696 136.087699,14.6937339 136.087699,13.7711813 C136.087699,12.8482807 136.838687,12.096945 137.760543,12.096945 L137.760543,12.096945 Z M137.760543,15.1482241 C138.521623,15.1482241 139.13863,14.5319131 139.13863,13.7711813 C139.13863,13.0101015 138.521623,12.3937905 137.760543,12.3937905 C137.000855,12.3937905 136.384544,13.0101015 136.384544,13.7711813 C136.384544,14.5319131 137.000855,15.1482241 137.760543,15.1482241 L137.760543,15.1482241 Z M137.117784,12.8037365 L137.8552,12.8037365 C138.31491,12.8037365 138.531019,13.0101015 138.531019,13.3793314 C138.531019,13.712717 138.333006,13.8741898 138.071309,13.906206 L138.571387,14.716006 L138.202157,14.716006 L137.725395,13.9330021 L137.468918,13.9330021 L137.468918,14.716006 L137.117784,14.716006 L137.117784,12.8037365 L137.117784,12.8037365 Z M137.468918,13.6358086 L137.725395,13.6358086 C137.941504,13.6358086 138.179537,13.6222366 138.179537,13.3657593 C138.179537,13.109282 137.941504,13.0964059 137.725395,13.100582 L137.468918,13.100582 L137.468918,13.6358086 L137.468918,13.6358086 Z" id="Fill-169" fill="#3F454F"></path>
            </g>
        </g>
    </g>
</svg>