<?xml version="1.0" encoding="UTF-8" standalone="no"?>
<svg width="48px" height="48px" viewBox="0 0 48 48" version="1.1" xmlns="http://www.w3.org/2000/svg" xmlns:xlink="http://www.w3.org/1999/xlink">
    <!-- Generator: sketchtool 39.1 (31720) - http://www.bohemiancoding.com/sketch -->
    <title>87B571EE-C183-4D12-BA22-971D7D4BF3E5</title>
    <desc>Created with sketchtool.</desc>
    <defs></defs>
    <g id="Symbols" stroke="none" stroke-width="1" fill="none" fill-rule="evenodd">
        <g id="add_act_48x48" fill="#007D8A">
            <path d="M24,0 C10.74432,0 0,10.74528 0,24 C0,37.25472 10.74432,48 24,48 C37.25568,48 48,37.25472 48,24 C48,10.74528 37.25568,0 24,0 L24,0 Z M37,27 L27,27 L27,37 C27,38.657 25.657,40 24,40 C22.343,40 21,38.657 21,37 L21,27 L11,27 C9.343,27 8,25.657 8,24 C8,22.343 9.343,21 11,21 L21,21 L21,11 C21,9.343 22.343,8 24,8 C25.657,8 27,9.343 27,11 L27,21 L37,21 C38.657,21 40,22.343 40,24 C40,25.657 38.657,27 37,27 L37,27 Z" id="Imported-Layers"></path>
        </g>
    </g>
</svg>