<?xml version="1.0" encoding="UTF-8" standalone="no"?>
<svg width="48px" height="48px" viewBox="0 0 48 48" version="1.1" xmlns="http://www.w3.org/2000/svg" xmlns:xlink="http://www.w3.org/1999/xlink">
    <!-- Generator: sketchtool 39.1 (31720) - http://www.bohemiancoding.com/sketch -->
    <title>ECF13DFA-0B6D-48BD-A5A4-15A61A3CFACA</title>
    <desc>Created with sketchtool.</desc>
    <defs></defs>
    <g id="Symbols" stroke="none" stroke-width="1" fill="none" fill-rule="evenodd">
        <g id="addfolder_act_48x48" fill="#007D8A">
            <path d="M21.987,9 L22,6.004 C22,3.793 20.215,2 18.013,2 L3.987,2 C1.785,2 0,3.793 0,6.004 L0,41.996 C0,44.207 1.785,46 3.987,46 L44.013,46 C46.215,46 48,44.207 48,41.996 L47.987,13.004 C47.987,10.792 46.202,9 44,9 L21.987,9 Z M34.5,30 L27,30 L27,37.5 C27,38.881 25.881,40 24.5,40 C23.119,40 22,38.881 22,37.5 L22,30 L14.5,30 C13.119,30 12,28.881 12,27.5 C12,26.119 13.119,25 14.5,25 L22,25 L22,17.5 C22,16.119 23.119,15 24.5,15 C25.881,15 27,16.119 27,17.5 L27,25 L34.5,25 C35.881,25 37,26.119 37,27.5 C37,28.881 35.881,30 34.5,30 L34.5,30 Z" id="add-folder"></path>
        </g>
    </g>
</svg>