<?xml version="1.0" encoding="UTF-8" standalone="no"?>
<svg width="48px" height="48px" viewBox="0 0 48 48" version="1.1" xmlns="http://www.w3.org/2000/svg" xmlns:xlink="http://www.w3.org/1999/xlink">
    <!-- Generator: sketchtool 39.1 (31720) - http://www.bohemiancoding.com/sketch -->
    <title>B92C943A-62F1-4E5A-A984-3AE7997BF42A</title>
    <desc>Created with sketchtool.</desc>
    <defs>
        <linearGradient x1="50%" y1="0%" x2="50%" y2="100%" id="linearGradient-1">
            <stop stop-color="#CB0000" offset="0%"></stop>
            <stop stop-color="#980000" offset="100%"></stop>
        </linearGradient>
        <path d="M0,23.0104096 C0.202937145,21.6376848 0.830682687,20.3169685 1.88323663,19.266 L19.2229546,1.9524 C20.5269187,0.6516 22.2455073,0 23.9640959,0 C25.6826845,0 27.4012732,0.6516 28.7052373,1.9524 L46.0449552,19.266 C48.6516816,21.87 48.6516816,26.13 46.0449552,28.734 L28.7052373,46.0476 C27.4012732,47.3484 25.6826845,48 23.9640959,48 C22.2455073,48 20.5269187,47.3484 19.2229546,46.0476 L1.88323663,28.734 C0.830682687,27.6830315 0.202937145,26.3623152 0,24.9895904 L1.05059208e-09,23.0104084 L0,23.0104096 Z" id="path-2"></path>
    </defs>
    <g id="Symbols" stroke="none" stroke-width="1" fill="none" fill-rule="evenodd">
        <g id="allergiesknown_global_48x48">
            <mask id="mask-3" fill="white">
                <use xlink:href="#path-2"></use>
            </mask>
            <use id="Clip-2" fill="url(#linearGradient-1)" xlink:href="#path-2"></use>
            <path d="M24,40 C21.789,40 20,38.203 20,36 C20,33.789 21.789,32 24,32 C26.21,32 28,33.789 28,36 C28,38.203 26.21,40 24,40 Z M20,8 L28,8 L28,28 L20,28 L20,8 Z" id="Fill-4" fill="#FFFFFF"></path>
        </g>
    </g>
</svg>