<?xml version="1.0" encoding="UTF-8" standalone="no"?>
<svg width="48px" height="48px" viewBox="0 0 48 48" version="1.1" xmlns="http://www.w3.org/2000/svg" xmlns:xlink="http://www.w3.org/1999/xlink">
    <!-- Generator: sketchtool 39.1 (31720) - http://www.bohemiancoding.com/sketch -->
    <title>09BD8F6E-8FAE-4F4A-B482-EAD4230AC28B</title>
    <desc>Created with sketchtool.</desc>
    <defs></defs>
    <g id="Symbols" stroke="none" stroke-width="1" fill="none" fill-rule="evenodd">
        <g id="allergies_act_48x48" fill="#007D8A">
            <path d="M23.99328,0 C10.74624,0 0,10.7424 0,23.99904 C0,37.24224 10.74624,47.99136 23.99328,48 C37.24704,47.99136 47.99328,37.24608 48,23.99904 C47.99328,10.7424 37.24704,0 23.99328,0 Z M4.28544,23.99904 C4.28544,13.11168 13.1136,4.28544 23.99424,4.28544 C28.60128,4.28544 32.82816,5.87808 36.18528,8.52672 L8.52768,36.18336 C5.87808,32.8272 4.28544,28.60128 4.28544,23.99904 Z M23.99424,43.71456 C19.39104,43.71072 15.16512,42.11616 11.81088,39.46752 L39.46848,11.808 C42.11808,15.16416 43.71264,19.39104 43.71456,23.99904 C43.7088,34.87968 34.8816,43.70688 23.99424,43.71456 Z M23.45472,15.71808 C22.73472,13.08288 20.20128,10.87968 17.5872,10.08672 C14.184,9.05856 11.43072,11.93376 11.43072,11.93376 C11.43072,11.93376 8.74752,14.61696 9.58464,18.08928 C10.22496,20.7456 12.57984,23.2368 15.21312,23.9568 C16.0032,24.1728 16.68864,24.42144 17.29728,24.7008 L24.1968,17.80224 C23.91648,17.1936 23.66976,16.50816 23.45472,15.71808 M35.73984,25.70688 C33.76512,24.24192 32.30592,23.6832 30.86784,23.12256 L22.61856,31.3728 C23.18016,32.81088 23.73888,34.26912 25.20288,36.24192 C27.92832,39.91488 33.18336,39.91008 36.29568,36.79776 C39.40896,33.68448 39.4128,28.42944 35.73984,25.70688" id="allergies"></path>
        </g>
    </g>
</svg>