<?xml version="1.0" encoding="UTF-8" standalone="no"?>
<svg width="48px" height="48px" viewBox="0 0 48 48" version="1.1" xmlns="http://www.w3.org/2000/svg" xmlns:xlink="http://www.w3.org/1999/xlink">
    <!-- Generator: sketchtool 39.1 (31720) - http://www.bohemiancoding.com/sketch -->
    <title>5627F8A6-D5A8-447E-8C7B-6B71448E5431</title>
    <desc>Created with sketchtool.</desc>
    <defs></defs>
    <g id="Symbols" stroke="none" stroke-width="1" fill="none" fill-rule="evenodd">
        <g id="appointment_act_48x48" fill="#007D8A">
            <path d="M41,4 L41,2 C41,0.896 40.104,0 39,0 C37.895,0 37,0.896 37,2 L37,4 L11,4 L11,2 C11,0.896 10.105,0 9,0 C7.896,0 7,0.896 7,2 L7,4 L5,4 C2.239,4 0,6.238 0,9 L0,43 C0,45.762 2.239,48 5,48 L43,48 C45.762,48 48,45.762 48,43 L48,9 C48,6.238 45.762,4 43,4 L41,4 Z M43,45 L5,45 C3.895,45 3,44.1559758 3,43.1160173 L3,14.8839827 C3,13.8440242 3.895,13 5,13 L43,13 C44.104,13 45,13.8440242 45,14.8839827 L45,43.1160173 C45,44.1559758 44.104,45 43,45 Z M6,26 L12,26 L12,32 L6,32 L6,26 Z M26,26 L32,26 L32,32 L26,32 L26,26 Z M36,26 L42,26 L42,32 L36,32 L36,26 Z M6,36 L12,36 L12,42 L6,42 L6,36 Z M26,36 L32,36 L32,42 L26,42 L26,36 Z M36,36 L42,36 L42,42 L36,42 L36,36 Z M16,16 L22,16 L22,22 L16,22 L16,16 Z M6,16 L12,16 L12,22 L6,22 L6,16 Z M26,16 L32,16 L32,22 L26,22 L26,16 Z M36,16 L42,16 L42,22 L36,22 L36,16 Z M16,36 L22,36 L22,42 L16,42 L16,36 Z M14,34 L24,34 L24,24 L14,24 L14,34 Z M16,26 L22,26 L22,32 L16,32 L16,26 Z" id="appointment"></path>
        </g>
    </g>
</svg>