<?xml version="1.0" encoding="UTF-8" standalone="no"?>
<svg width="48px" height="48px" viewBox="0 0 48 48" version="1.1" xmlns="http://www.w3.org/2000/svg" xmlns:xlink="http://www.w3.org/1999/xlink">
    <!-- Generator: sketchtool 39.1 (31720) - http://www.bohemiancoding.com/sketch -->
    <title>EAFD3740-2E00-46BD-BB2B-FFCAB3203B96</title>
    <desc>Created with sketchtool.</desc>
    <defs></defs>
    <g id="Symbols" stroke="none" stroke-width="1" fill="none" fill-rule="evenodd">
        <g id="assessments_nor_light_48x48" fill="#FFFFFF">
            <path d="M8.535,0 C5.773,0 4,2.238 4,5 L4,6 L2,6 C0.896,6 0,6.896 0,8 C0,9.104 0.896,10 2,10 L4,10 L4,14 L2,14 C0.896,14 0,14.896 0,16 C0,17.104 0.896,18 2,18 L4,18 L4,22 L2,22 C0.896,22 0,22.896 0,24 C0,25.104 0.896,26 2,26 L4,26 L4,30 L2,30 C0.896,30 0,30.896 0,32 C0,33.104 0.896,34 2,34 L4,34 L4,38 L2,38 C0.896,38 0,38.895 0,40 C0,41.104 0.896,42 2,42 L4,42 L4,43 C4,45.762 5.773,48 8.535,48 L42.535,48 C45.295,48 48,45.762 48,43 L48,5 C48,2.238 45.295,0 42.535,0 L8.535,0 Z M42.535,45 L11.535,45 C10.43,45 10,44.104 10,43 L10,5 C10,3.896 10.43,3 11.535,3 L42.535,3 C43.639,3 45,3.896 45,5 L45,43 C45,44.104 43.639,45 42.535,45 Z M15,7 L40,7 L40,11 L15,11 L15,7 Z M15,15 L40,15 L40,19 L15,19 L15,15 Z M31,23 L15,23 L15,27 L27,27 L31,23 M35.061,23.817 L24.131,34.749 L19.937,30.557 C18.811,29.425 16.978,29.427 15.847,30.553 C14.717,31.682 14.717,33.514 15.847,34.644 L22.087,40.883 C23.215,42.013 25.047,42.011 26.176,40.88 L39.149,27.905 C40.285,26.777 40.281,24.945 39.152,23.817 C38.022,22.688 36.193,22.687 35.061,23.817" id="assessments"></path>
        </g>
    </g>
</svg>