<?xml version="1.0" encoding="UTF-8" standalone="no"?>
<svg width="48px" height="48px" viewBox="0 0 48 48" version="1.1" xmlns="http://www.w3.org/2000/svg" xmlns:xlink="http://www.w3.org/1999/xlink">
    <!-- Generator: sketchtool 39.1 (31720) - http://www.bohemiancoding.com/sketch -->
    <title>5C1EA51A-11B6-4CC9-8C1D-9AE75565FB3D</title>
    <desc>Created with sketchtool.</desc>
    <defs></defs>
    <g id="Symbols" stroke="none" stroke-width="1" fill="none" fill-rule="evenodd">
        <g id="attachment_nor_dark_48x48" fill="#666666">
            <path d="M22.7707434,44.9425267 C22.2790883,44.9425267 21.7883934,44.7543149 21.4129301,44.379812 C20.6629639,43.6298458 20.6629639,42.4141515 21.4129301,41.6641853 L41.464203,21.6119522 C45.061352,18.0109621 45.061352,12.1456695 41.4622825,8.53795759 C37.8564911,4.93888805 31.9931191,4.93792779 28.3911687,8.53891785 L5.45526271,31.464261 C4.41337625,32.5061474 3.84009864,33.8927687 3.8410589,35.3667739 C3.8410589,36.8417395 4.41721731,38.229321 5.46198456,39.2731279 C7.6091349,41.4202783 11.1092972,41.4183578 13.2641297,39.2712074 L36.1933139,16.3420232 C36.8952669,15.63911 36.8971874,14.4954355 36.1971549,13.7954031 C35.4942417,13.0924898 34.3515275,13.0934501 33.6486142,13.7934825 L13.5992618,33.8428349 C12.8502559,34.5928011 11.6326411,34.5928011 10.8836352,33.8428349 C10.133669,33.0928687 10.133669,31.8771745 10.8836352,31.1272083 L30.9349081,11.0759354 C33.1377538,8.87981158 36.7156975,8.88077184 38.9127816,11.0797764 C41.1089054,13.2759002 41.1079451,16.8548042 38.910861,19.0566896 L15.9778358,41.9897148 C12.3221107,45.6319963 6.38767907,45.6319963 2.74731819,41.9897148 C0.97659134,40.2218688 0.000963099614,37.869222 2.83559832e-06,35.3686945 C-0.00191769243,32.8672067 0.97179002,30.5164804 2.73963607,28.7476741 L25.6755421,5.82329121 C30.7726235,0.726209817 39.0731456,0.725249553 44.1788694,5.82233095 C49.2740303,10.9299752 49.27307,19.2304974 44.1798297,24.3275788 L24.1285568,44.379812 C23.7540538,44.7543149 23.2623986,44.9425267 22.7707434,44.9425267" id="Fill-7"></path>
        </g>
    </g>
</svg>