<?xml version="1.0" encoding="UTF-8" standalone="no"?>
<svg width="48px" height="48px" viewBox="0 0 48 48" version="1.1" xmlns="http://www.w3.org/2000/svg" xmlns:xlink="http://www.w3.org/1999/xlink">
    <!-- Generator: sketchtool 39.1 (31720) - http://www.bohemiancoding.com/sketch -->
    <title>E2C174C4-B6D7-4CCC-8CF2-DBACEEE45480</title>
    <desc>Created with sketchtool.</desc>
    <defs></defs>
    <g id="Symbols" stroke="none" stroke-width="1" fill="none" fill-rule="evenodd">
        <g id="authorize_nor_light_48x48" fill="#FFFFFF">
            <path d="M8,48 C6.343,48 5,46.657 5,45 C5,43.343 6.343,42 8,42 L20,42 C21.657,42 23,43.343 23,45 C23,46.657 21.657,48 20,48 L8,48 L8,48 Z M20,24 C21.657,24 23,22.657 23,21 C23,19.343 21.657,18 20,18 L8,18 C6.343,18 5,19.343 5,21 C5,22.657 6.343,24 8,24 C7.75,24 20,24 20,24 L20,24 Z M24,40 C25.657,40 27,38.657 27,37 C27,35.343 25.657,34 24,34 L4,34 C2.343,34 1,35.343 1,37 C1,38.657 2.343,40 4,40 C3.75,40 24,40 24,40 L24,40 Z M24,32 C25.657,32 27,30.657 27,29 C27,27.343 25.657,26 24,26 L4,26 C2.343,26 1,27.343 1,29 C1,30.657 2.343,32 4,32 C3.75,32 24,32 24,32 L24,32 Z M35,14 L35,4 C35,1.791 33.209,0 31,0 C28.791,0 27,1.791 27,4 L27,18 L23.974,18 C24.609,18.838 25,19.87 25,21 C25,22.13 24.609,23.162 23.974,24 C26.757,24 29,26.243 29,29 C29,30.641 28.194,32.088 26.969,33 C28.194,33.912 29,35.359 29,37 C29,39.757 26.757,42 24,42 C24.609,42.838 25,43.87 25,45 C25,46.13 24.609,47.162 23.974,48 L41,48 C44.314,48 47,45.314 47,42 L47,26 C47,22.686 44.314,20 41,20 C37.686,20 35,17.314 35,14 Z" id="Fill-13"></path>
        </g>
    </g>
</svg>