<?xml version="1.0" encoding="UTF-8" standalone="no"?>
<svg width="48px" height="48px" viewBox="0 0 48 48" version="1.1" xmlns="http://www.w3.org/2000/svg" xmlns:xlink="http://www.w3.org/1999/xlink">
    <!-- Generator: sketchtool 39.1 (31720) - http://www.bohemiancoding.com/sketch -->
    <title>59708DA5-97E7-4C75-BF19-0F9933ED53E4</title>
    <desc>Created with sketchtool.</desc>
    <defs></defs>
    <g id="Symbols" stroke="none" stroke-width="1" fill="none" fill-rule="evenodd">
        <g id="calendar_act_48x48" fill="#007D8A">
            <path d="M41,4 L41,2 C41,0.896 40.104,0 39,0 C37.895,0 37,0.896 37,2 L37,4 L11,4 L11,2 C11,0.896 10.105,0 9,0 C7.896,0 7,0.896 7,2 L7,4 L5,4 C2.239,4 0,6.238 0,9 L0,43 C0,45.762 2.239,48 5,48 L43,48 C45.762,48 48,45.762 48,43 L48,9 C48,6.238 45.762,4 43,4 L41,4 Z M43,45 L5,45 C3.895,45 3,44.1296 3,43.0571429 L3,13.9428571 C3,12.8704 3.895,12 5,12 L43,12 C44.104,12 45,12.8704 45,13.9428571 L45,43.0571429 C45,44.1296 44.104,45 43,45 Z M6.999,35.898 L16.016,27.178 C16.278,26.915 16.551,26.637 16.835,26.341 C17.119,26.046 17.376,25.734 17.606,25.407 C17.835,25.079 18.026,24.735 18.18,24.375 C18.332,24.014 18.409,23.637 18.409,23.243 C18.409,22.763 18.316,22.336 18.13,21.965 C17.945,21.593 17.699,21.275 17.393,21.014 C17.086,20.752 16.731,20.549 16.327,20.407 C15.922,20.266 15.491,20.193 15.032,20.193 C14.048,20.193 13.24,20.479 12.606,21.047 C11.972,21.615 11.589,22.38 11.458,23.342 L7.327,23.014 C7.414,21.943 7.672,20.997 8.097,20.178 C8.524,19.357 9.076,18.676 9.753,18.129 C10.431,17.583 11.217,17.167 12.114,16.883 C13.01,16.599 13.983,16.456 15.032,16.456 C16.081,16.456 17.059,16.594 17.966,16.866 C18.873,17.14 19.666,17.544 20.343,18.08 C21.021,18.614 21.557,19.298 21.95,20.129 C22.344,20.96 22.54,21.932 22.54,23.047 C22.54,24.511 22.206,25.773 21.54,26.833 C20.873,27.895 20.016,28.904 18.967,29.865 L11.786,36.523 L22.54,36.523 L22.54,40.063 L6.999,40.063 L6.999,35.898 L6.999,35.898 Z M33.164,16.456 C34.146,16.456 35.07,16.594 35.935,16.866 C36.798,17.14 37.551,17.533 38.196,18.047 C38.842,18.56 39.349,19.194 39.721,19.947 C40.092,20.702 40.279,21.571 40.279,22.555 C40.279,23.801 39.989,24.894 39.409,25.833 C38.83,26.773 37.95,27.418 36.77,27.768 L36.77,27.833 C37.316,27.943 37.848,28.167 38.361,28.506 C38.873,28.845 39.327,29.259 39.721,29.751 C40.114,30.243 40.426,30.806 40.654,31.439 C40.886,32.074 41,32.752 41,33.473 C41,34.631 40.791,35.643 40.377,36.505 C39.962,37.369 39.404,38.095 38.705,38.686 C38.006,39.275 37.175,39.718 36.213,40.014 C35.25,40.309 34.234,40.456 33.164,40.456 C32.07,40.456 31.05,40.309 30.099,40.014 C29.146,39.718 28.322,39.275 27.623,38.686 C26.923,38.095 26.366,37.369 25.95,36.505 C25.535,35.643 25.328,34.631 25.328,33.473 C25.328,32.752 25.442,32.074 25.672,31.439 C25.901,30.806 26.213,30.243 26.607,29.751 C27,29.259 27.453,28.845 27.967,28.506 C28.481,28.167 29.011,27.943 29.558,27.833 L29.558,27.768 C28.377,27.418 27.497,26.773 26.917,25.833 C26.339,24.894 26.05,23.801 26.05,22.555 C26.05,21.571 26.234,20.702 26.607,19.947 C26.977,19.194 27.485,18.56 28.131,18.047 C28.776,17.533 29.529,17.14 30.393,16.866 C31.257,16.594 32.18,16.456 33.164,16.456 L33.164,16.456 Z M33.164,29.342 C32.639,29.342 32.137,29.43 31.656,29.604 C31.174,29.779 30.76,30.03 30.409,30.357 C30.061,30.686 29.78,31.074 29.573,31.522 C29.366,31.97 29.262,32.456 29.262,32.981 C29.262,34.096 29.629,34.997 30.36,35.686 C31.093,36.374 32.026,36.719 33.164,36.719 C34.3,36.719 35.233,36.374 35.967,35.686 C36.699,34.997 37.065,34.096 37.065,32.981 C37.065,32.456 36.961,31.97 36.754,31.522 C36.546,31.074 36.267,30.686 35.918,30.357 C35.567,30.03 35.152,29.779 34.673,29.604 C34.19,29.43 33.689,29.342 33.164,29.342 L33.164,29.342 Z M33.164,19.8 C32.158,19.8 31.376,20.107 30.82,20.719 C30.263,21.33 29.982,22.074 29.982,22.948 C29.982,23.865 30.268,24.637 30.835,25.26 C31.403,25.883 32.18,26.193 33.164,26.193 C33.601,26.193 34.01,26.112 34.393,25.947 C34.775,25.784 35.114,25.555 35.409,25.26 C35.705,24.965 35.935,24.62 36.098,24.227 C36.262,23.834 36.344,23.407 36.344,22.948 C36.344,22.074 36.044,21.33 35.442,20.719 C34.841,20.107 34.081,19.8 33.164,19.8 L33.164,19.8 Z" id="calendar"></path>
        </g>
    </g>
</svg>