<?xml version="1.0" encoding="UTF-8" standalone="no"?>
<svg width="48px" height="48px" viewBox="0 0 48 48" version="1.1" xmlns="http://www.w3.org/2000/svg" xmlns:xlink="http://www.w3.org/1999/xlink">
    <!-- Generator: sketchtool 39.1 (31720) - http://www.bohemiancoding.com/sketch -->
    <title>1CC68488-0BD7-4457-BB3B-C56E8A096AEC</title>
    <desc>Created with sketchtool.</desc>
    <defs></defs>
    <g id="Symbols" stroke="none" stroke-width="1" fill="none" fill-rule="evenodd">
        <g id="careteam_act_48x48" fill="#007D8A">
            <path d="M30.6798346,21 C29.9315062,24 28.1249558,25.383 25.6976216,27 L34.874858,27 C38.2657522,27 41.0249018,29.771 41.0249018,33.177 L41.0249018,40 L48,40 L48,25.177 C48,22.87 46.1396417,21 43.8428414,21 L30.6798346,21 Z M4.16114433,29 C1.86434412,29 0,30.87 0,33.177 L0,48 L39,48 L39,33.177 C39,30.87 37.1396417,29 34.8428414,29 L4.16114433,29 Z M17,40 L12,40 L12,45 L9,45 L9,40 L4,40 L4,37 L9,37 L9,32 L12,32 L12,37 L17,37 L16.9537539,40 L17,40 Z M29,17.4981 C29,12.25125 24.74495,8 19.5,8 C14.2522,8 10,12.25125 10,17.4981 C10,22.74685 14.2522,27 19.5,27 C24.74495,27 29,22.74685 29,17.4981 Z M30.9398143,18.6837807 C35.004302,17.6068087 38,13.9032457 38,9.5 C38,4.25329488 33.7467051,0 28.5,0 C24.4888574,0 21.0583341,2.48592711 19.6650513,6.00116031 C25.9402355,6.08943906 31,11.2038339 31,17.5 C31,17.8996836 30.9796103,18.294605 30.9398143,18.6837807 L30.9398143,18.6837807 Z" id="Fill-1"></path>
        </g>
    </g>
</svg>