<?xml version="1.0" encoding="UTF-8" standalone="no"?>
<svg width="48px" height="48px" viewBox="0 0 48 48" version="1.1" xmlns="http://www.w3.org/2000/svg" xmlns:xlink="http://www.w3.org/1999/xlink">
    <!-- Generator: sketchtool 39.1 (31720) - http://www.bohemiancoding.com/sketch -->
    <title>CD09C33C-9252-4535-86B2-4B4EEEC34EA8</title>
    <desc>Created with sketchtool.</desc>
    <defs></defs>
    <g id="Symbols" stroke="none" stroke-width="1" fill="none" fill-rule="evenodd">
        <g id="chat_act_48x48" fill="#007D8A">
            <g id="chat">
                <g>
                    <path d="M4.166,0 C1.874,0 0,1.874 0,4.166 L0,25.834 C0,28.126 1.874,30 4.166,30 L8,30 L8,40 L18.332,30 L35.832,30 C38.124,30 40,28.126 40,25.834 L40,4.166 C40,1.874 38.124,0 35.832,0 L4.166,0 L4.166,0 Z M44.2506,12.0004 L43.0006,12.0004 L43.0006,25.8344 C43.0006,29.7854 39.7846,33.0004 35.8326,33.0004 L19.5466,33.0004 L13.8836,38.4804 C14.4366,38.8024 15.0686,39.0004 15.7516,39.0004 L31.5016,39.0004 L40.7996,48.0004 L40.7996,39.0004 L44.2506,39.0004 C46.3136,39.0004 47.9996,37.3134 47.9996,35.2514 L47.9996,15.7494 C47.9996,13.6874 46.3136,12.0004 44.2506,12.0004 L44.2506,12.0004 Z"></path>
                </g>
            </g>
        </g>
    </g>
</svg>