<?xml version="1.0" encoding="UTF-8" standalone="no"?>
<svg width="48px" height="48px" viewBox="0 0 48 48" version="1.1" xmlns="http://www.w3.org/2000/svg" xmlns:xlink="http://www.w3.org/1999/xlink">
    <!-- Generator: sketchtool 39.1 (31720) - http://www.bohemiancoding.com/sketch -->
    <title>9ACB4DB0-5B31-4236-8D19-A2709C927994</title>
    <desc>Created with sketchtool.</desc>
    <defs></defs>
    <g id="Symbols" stroke="none" stroke-width="1" fill="none" fill-rule="evenodd">
        <g id="checkin_nor_dark_48x48" fill="#666666">
            <path d="M18,11 L41,24 L18,37 L18,28 L0,28 L0,20 L18,20 L18,11 L18,11 Z M16,0 C13.25,0 11,2.25 11,5 L11,17 L15,17 L15,5 C15,4.458 15.458,4 16,4 L43,4 C43.542,4 44,4.458 44,5 L44,43 C44,43.542 43.542,44 43,44 L16,44 C15.458,44 15,43.542 15,43 L15,31 L11,31 L11,43 C11,45.75 13.25,48 16,48 L43,48 C45.75,48 48,45.75 48,43 L48,5 C48,2.25 45.75,0 43,0 L16,0 Z" id="checkin"></path>
        </g>
    </g>
</svg>