<?xml version="1.0" encoding="UTF-8" standalone="no"?>
<svg width="48px" height="48px" viewBox="0 0 48 48" version="1.1" xmlns="http://www.w3.org/2000/svg" xmlns:xlink="http://www.w3.org/1999/xlink">
    <!-- Generator: sketchtool 39.1 (31720) - http://www.bohemiancoding.com/sketch -->
    <title>EB020F5D-C538-414B-8739-3673229B0B7A</title>
    <desc>Created with sketchtool.</desc>
    <defs></defs>
    <g id="Symbols" stroke="none" stroke-width="1" fill="none" fill-rule="evenodd">
        <g id="ED_nor_light_48x48" fill="#FFFFFF">
            <path d="M41,9 C41,6.25 38.75,4 36,4 L33,4 L33,0 L25,0 L25,4 L5,4 C2.25,4 0,6.25 0,9 L0,36 C0,38.75 2.25,41 5,41 C5,44.866 8.134,48 12,48 C15.866,48 19,44.866 19,41 L29,41 C29,44.866 32.134,48 36,48 C39.866,48 43,44.866 43,41 C45.75,41 48,38.75 48,36 L48,25 L41,18 L41,9 Z M43,38 L42.317,38 C41.193,35.637 38.791,34 36,34 C33.209,34 30.807,35.637 29.683,38 L18.317,38 C17.193,35.637 14.791,34 12,34 C9.209,34 6.807,35.637 5.683,38 L5,38 C3.916,38 3,37.084 3,36 L3,9 C3,7.916 3.916,7 5,7 L36,7 C37.084,7 38,7.916 38,9 L38,19.243 L45,26.243 L45,36 C45,37.084 44.084,38 43,38 Z M24,19 L31,19 L31,25 L24,25 L24,32 L18,32 L18,25 L11,25 L11,19 L18,19 L18,12 L24,12 L24,19 L24,19 Z" id="ED"></path>
        </g>
    </g>
</svg>