<?xml version="1.0" encoding="UTF-8" standalone="no"?>
<svg width="48px" height="48px" viewBox="0 0 48 48" version="1.1" xmlns="http://www.w3.org/2000/svg" xmlns:xlink="http://www.w3.org/1999/xlink">
    <!-- Generator: sketchtool 39.1 (31720) - http://www.bohemiancoding.com/sketch -->
    <title>CDBC0BAE-99A2-44CD-8AD8-143D2977EA2C</title>
    <desc>Created with sketchtool.</desc>
    <defs></defs>
    <g id="Symbols" stroke="none" stroke-width="1" fill="none" fill-rule="evenodd">
        <g id="emar_nor_dark_48x48" fill="#666666">
            <path d="M8,0 C5.239,0 3,2.238 3,5 L3,10 L6,10 L6,43 C6,45.762 8.239,48 11,48 L37,48 C39.761,48 42,45.762 42,43 L42,10 L45,10 L45,5 C45,2.238 42.761,0 40,0 L8,0 Z M36,20 L39,20 L39,34 L36,34 L36,20 Z M39,17 L17,17 C15.895,17 15,17.896 15,19 L15,35 C15,36.104 15.895,37 17,37 L39,37 L39,43 C39,44.104 38.104,45 37,45 L11,45 C9.895,45 9,44.104 9,43 L9,10 L39,10 L39,17 L39,17 Z M30,20 L33,20 L33,34 L30,34 L30,20 Z M24,20 L27,20 L27,34 L24,34 L24,20 Z M18,20 L21,20 L21,34 L18,34 L18,20 Z" id="Fill-2"></path>
        </g>
    </g>
</svg>