<?xml version="1.0" encoding="UTF-8" standalone="no"?>
<svg width="48px" height="48px" viewBox="0 0 48 48" version="1.1" xmlns="http://www.w3.org/2000/svg" xmlns:xlink="http://www.w3.org/1999/xlink">
    <!-- Generator: sketchtool 39.1 (31720) - http://www.bohemiancoding.com/sketch -->
    <title>102BC6B5-0727-42DB-B204-DC5CDDEBF39E</title>
    <desc>Created with sketchtool.</desc>
    <defs></defs>
    <g id="Symbols" stroke="none" stroke-width="1" fill="none" fill-rule="evenodd">
        <g id="goal_nor_dark_48x48" fill="#666666">
            <path d="M41.0464,17.28 C41.0464,7.73664 33.30976,0 23.7664,0 C14.22304,0 6.4864,7.73664 6.4864,17.28 C6.4864,21.35904 7.90816,25.10208 10.27264,28.05792 L4,41 L12.58336,41 L17.92096,48 L23.7664,35.46528 L29.61184,48 L34.94944,41 L43.5328,41 L37.26016,28.05792 C39.62464,25.10208 41.0464,21.35904 41.0464,17.28 Z M23.7664,31.68 C15.81376,31.68 9.3664,25.23264 9.3664,17.28 C9.3664,9.32736 15.81376,2.88 23.7664,2.88 C31.71904,2.88 38.1664,9.32736 38.1664,17.28 C38.1664,25.23264 31.71904,31.68 23.7664,31.68 L23.7664,31.68 Z M26.93152,13.07232 L34.8064,13.5 L28.88704,19.09248 L30.58912,26.81952 L23.7664,22.81344 L16.94368,26.81952 L18.64576,19.09248 L12.7264,13.5 L20.60128,13.07232 L23.7664,5.82048 L26.93152,13.07232 Z" id="goal"></path>
        </g>
    </g>
</svg>