<?xml version="1.0" encoding="UTF-8" standalone="no"?>
<svg width="48px" height="48px" viewBox="0 0 48 48" version="1.1" xmlns="http://www.w3.org/2000/svg" xmlns:xlink="http://www.w3.org/1999/xlink">
    <!-- Generator: sketchtool 39.1 (31720) - http://www.bohemiancoding.com/sketch -->
    <title>6C44CC3B-E33F-4F2A-B98E-4100A717C554</title>
    <desc>Created with sketchtool.</desc>
    <defs></defs>
    <g id="Symbols" stroke="none" stroke-width="1" fill="none" fill-rule="evenodd">
        <g id="immunizations_nor_light_48x48" fill="#FFFFFF">
            <path d="M44.46475,15.556 L47.99975,12.02 L35.97975,0 L32.44375,3.535 L36.68775,7.778 L34.56475,9.899 L26.78675,2.121 L21.83675,7.07 L25.37275,10.606 L5.99975014,30 L5.99975014,39 L0.43875,45.44 C-0.14625,46.024 -0.14625,46.976 0.43875,47.561 C1.02475,48.146 1.97475,48.146 2.56075,47.561 L7.99975014,42 L17.9997501,42 L37.39375,22.627 L40.92875,26.162 L45.87875,21.213 L38.10075,13.435 L40.22275,11.314 L44.46475,15.556 Z M27.77775,28 L12.22175,28 L27.49375,12.729 L35.27275,20.506 L26.77775,29 L27.77775,28 Z" id="immunizations"></path>
        </g>
    </g>
</svg>