<?xml version="1.0" encoding="UTF-8" standalone="no"?>
<svg width="48px" height="48px" viewBox="0 0 48 48" version="1.1" xmlns="http://www.w3.org/2000/svg" xmlns:xlink="http://www.w3.org/1999/xlink">
    <!-- Generator: sketchtool 39.1 (31720) - http://www.bohemiancoding.com/sketch -->
    <title>C6BD823E-2C62-4165-A844-5AE3D954F072</title>
    <desc>Created with sketchtool.</desc>
    <defs></defs>
    <g id="Symbols" stroke="none" stroke-width="1" fill="none" fill-rule="evenodd">
        <g id="mailread_nor_dark_48x48" fill="#666666">
            <path d="M24,37.284 C22.721,37.284 21.441,36.796 20.465,35.82 L0.5,15.856 C0.189,16.508 0,17.229 0,18 L0,43 C0,45.762 2.238,48 5,48 L43,48 C45.762,48 48,45.762 48,43 L48,18 C48,17.229 47.811,16.508 47.5,15.856 L27.536,35.82 C26.559,36.796 25.28,37.284 24,37.284 Z M46.113,14 L46.448,13.6873385 L25.664,0.539691005 C24.641,-0.179897002 23.453,-0.179897002 22.336,0.539691005 L1.552,13.6873385 L1.887,14 L46.113,14 L46.113,14 Z M5.887,17 L22.6027222,33.455152 C22.9597222,33.8066069 23.4338333,34 23.9381667,34 C24.4425,34 24.9166111,33.8066069 25.2736111,33.455152 L41.9893333,17 L5.887,17 L5.887,17 Z" id="mailread"></path>
        </g>
    </g>
</svg>