<?xml version="1.0" encoding="UTF-8" standalone="no"?>
<svg width="48px" height="48px" viewBox="0 0 48 48" version="1.1" xmlns="http://www.w3.org/2000/svg" xmlns:xlink="http://www.w3.org/1999/xlink">
    <!-- Generator: sketchtool 39.1 (31720) - http://www.bohemiancoding.com/sketch -->
    <title>A324F673-697D-4954-9B8B-95216079B033</title>
    <desc>Created with sketchtool.</desc>
    <defs></defs>
    <g id="Symbols" stroke="none" stroke-width="1" fill="none" fill-rule="evenodd">
        <g id="medications_nor_light_48x48" fill="#FFFFFF">
            <path d="M40.7326848,25.877 L34.1611327,32.4485521 L42.141758,40.4291775 C42.6992981,40.9857662 42.6992981,41.8886767 42.141758,42.4471682 C41.862988,42.7249869 41.4976375,42.8638962 41.1322869,42.8638962 C40.7669364,42.8638962 40.4025373,42.7249869 40.1237673,42.4471682 L32.1431419,34.4665429 L25.877,40.7317334 C27.5696004,44.9199443 31.6664737,47.877 36.4597963,47.877 C42.7649471,47.877 47.877,42.7649471 47.877,36.4597963 C47.877,31.6664737 44.9199443,27.5696004 40.7326848,25.877 Z M44.7104187,3.28790136 C42.5188044,1.09628711 39.6465706,0 36.7733768,0 C33.899223,0.000959971201 31.0250692,1.09724708 28.833455,3.28886133 L3.28958131,28.831775 C-1.0965271,33.2169235 -1.0965271,40.3255102 3.28958131,44.7106587 C3.5631731,44.9842505 3.84828455,45.2415228 4.14203574,45.4815156 C4.73049809,45.9605412 5.35543934,46.3723688 6.00725978,46.7141186 C6.33364999,46.8859534 6.66580003,47.0395488 7.00370989,47.1768247 C8.35534934,47.7249683 9.79146626,47.99856 11.2285431,47.99856 C13.7427077,47.99856 16.2568723,47.1595452 18.3140906,45.4815156 L44.7104187,19.166785 C49.0965271,14.7825965 49.0965271,7.67304981 44.7104187,3.28790136 Z M7.81776547,33.9263422 C7.44241673,34.300731 6.95091147,34.4888853 6.46036619,34.4888853 C5.96886093,34.4888853 5.47735568,34.300731 5.10200694,33.9263422 C4.35226943,33.1775647 4.35226943,31.9612812 5.10200694,31.2115437 L15.9170425,20.3965081 L18.631841,23.1113067 L7.81776547,33.9263422 L7.81776547,33.9263422 Z M29.9268622,29.8781437 L18.1211364,18.0733778 L30.8695539,5.32496025 C32.4467866,3.74868754 34.5424037,2.8799136 36.7743368,2.8799136 C39.0024299,2.8799136 41.0980471,3.74868754 42.6743198,5.32496025 C44.2515525,6.90123296 45.1193664,8.99781007 45.1193664,11.2278232 C45.1193664,13.4578363 44.2515525,15.5534534 42.6743198,17.1306861 L29.9268622,29.8781437 L29.9268622,29.8781437 Z" id="meds"></path>
        </g>
    </g>
</svg>