<?xml version="1.0" encoding="UTF-8" standalone="no"?>
<svg width="48px" height="48px" viewBox="0 0 48 48" version="1.1" xmlns="http://www.w3.org/2000/svg" xmlns:xlink="http://www.w3.org/1999/xlink">
    <!-- Generator: sketchtool 39.1 (31720) - http://www.bohemiancoding.com/sketch -->
    <title>066752B2-1A94-4839-8766-72F6EDDC0878</title>
    <desc>Created with sketchtool.</desc>
    <defs></defs>
    <g id="Symbols" stroke="none" stroke-width="1" fill="none" fill-rule="evenodd">
        <g id="orders_nor_dark_48x48" fill="#666666">
            <path d="M29.879,4 C29.324,1.718 26.902,0 24,0 C21.098,0 18.676,1.718 18.121,4 L8,4 C5.238,4 3,6.238 3,9 L3,43 C3,45.762 5.238,48 8,48 L40,48 C42.762,48 45,45.762 45,43 L45,9 C45,6.238 42.762,4 40,4 L29.879,4 Z M34,31 L26,31 L26,39 L22,39 L22,31 L14,31 L14,27 L22,27 L22,19 L26,19 L26,27 L34,27 L34,31 L34,31 Z M42,12 L6,12 L6,9 C6,7.896 6.896,7 8,7 L40,7 C41.104,7 42,7.896 42,9 L42,12 L42,12 Z" id="Fill-2"></path>
        </g>
    </g>
</svg>