<?xml version="1.0" encoding="UTF-8" standalone="no"?>
<svg width="48px" height="48px" viewBox="0 0 48 48" version="1.1" xmlns="http://www.w3.org/2000/svg" xmlns:xlink="http://www.w3.org/1999/xlink">
    <!-- Generator: sketchtool 39.1 (31720) - http://www.bohemiancoding.com/sketch -->
    <title>BC83DDCF-9880-4C55-9EDA-4758F04FC298</title>
    <desc>Created with sketchtool.</desc>
    <defs></defs>
    <g id="Symbols" stroke="none" stroke-width="1" fill="none" fill-rule="evenodd">
        <g id="prescribe_nor_dark_48x48" fill="#666666">
            <path d="M8,0 C5.238,0 3,2.238 3,5 L3,10 L6,10 L6,43 C6,45.762 8.238,48 11,48 L37,48 C39.761,48 42,45.762 42,43 L42,10 L45,10 L45,5 C45,2.238 42.761,0 40,0 L8,0 Z M39,43 C39,44.104 38.104,45 37,45 L11,45 C9.896,45 9,44.104 9,43 L9,10 L39,10 L39,43 L39,43 Z M18.879,25.424 L25.312,33.775 L19.907,41 L23.884,41 L27.411,36.184 L30.911,41 L35,41 L29.596,33.775 L34.187,27.561 L30.352,27.561 L27.439,31.592 L22.688,25.061 C24.162,24.855 25.297,24.268 26.09,23.297 C26.883,22.326 27.28,21.122 27.28,19.684 C27.28,18.564 27.074,17.641 26.664,16.912 C26.253,16.184 25.702,15.605 25.012,15.176 C24.321,14.747 23.532,14.443 22.646,14.266 C21.759,14.089 20.84,14 19.888,14 L13,14 L13,34 L17,34 L17,25.424 L18.879,25.424 Z M19.3552075,17.08 C19.8032075,17.08 20.2652075,17.109 20.7412075,17.164 C21.2172075,17.22 21.6512075,17.337 22.0432075,17.514 C22.4352075,17.692 22.7532075,17.958 22.9952075,18.312 C23.2382075,18.667 23.3592075,19.134 23.3452148,19.712 C23.3592075,20.367 23.2282075,20.874 22.9672075,21.238 C22.7062075,21.603 22.3652075,21.872 21.9452075,22.05 C21.5252075,22.228 21.0632075,22.339 20.5592075,22.386 C20.0552075,22.433 19.5512075,22.456 19.0472075,22.456 L17,22.4 L17,17.024 L19.3552075,17.08 Z" id="Rx"></path>
        </g>
    </g>
</svg>