<?xml version="1.0" encoding="UTF-8" standalone="no"?>
<svg width="48px" height="48px" viewBox="0 0 48 48" version="1.1" xmlns="http://www.w3.org/2000/svg" xmlns:xlink="http://www.w3.org/1999/xlink">
    <!-- Generator: sketchtool 39.1 (31720) - http://www.bohemiancoding.com/sketch -->
    <title>43676C5D-EEBF-4BBF-BB7E-4772ED6E10F6</title>
    <desc>Created with sketchtool.</desc>
    <defs></defs>
    <g id="Symbols" stroke="none" stroke-width="1" fill="none" fill-rule="evenodd">
        <g id="reconcile_nor_dark_48x48" fill="#666666">
            <g id="reconcile">
                <path d="M43,28 L27.548,28 C27.454,27.435 27.39,26.861 27.39,26.27 C27.39,23.15 28.749,20.347 30.911,18.422 C33.12,16.497 34.508,13.667 34.508,10.507 C34.508,4.704 29.804,0 24.002,0 C18.199,0 13.492,4.704 13.492,10.507 C13.492,13.667 14.896,16.497 17.106,18.422 C19.264,20.347 20.613,23.15 20.613,26.27 C20.613,26.861 20.549,27.435 20.455,28 L5,28 C2.25,28 0,30.25 0,33 L0,40 L48,40 L48,33 C48,30.25 45.75,28 43,28 L43,28 Z M9,48 L39,48 C41.75,48 44,45.75 44,43 L4,43 C4,45.75 6.25,48 9,48 L9,48 Z"></path>
            </g>
        </g>
    </g>
</svg>