<?xml version="1.0" encoding="UTF-8" standalone="no"?>
<svg width="48px" height="48px" viewBox="0 0 48 48" version="1.1" xmlns="http://www.w3.org/2000/svg" xmlns:xlink="http://www.w3.org/1999/xlink">
    <!-- Generator: sketchtool 39.1 (31720) - http://www.bohemiancoding.com/sketch -->
    <title>0233018A-2856-4C16-9BE8-6B196A598BE3</title>
    <desc>Created with sketchtool.</desc>
    <defs></defs>
    <g id="Symbols" stroke="none" stroke-width="1" fill="none" fill-rule="evenodd">
        <g id="scriptpad_nor_dark_48x48" fill="#666666">
            <g id="Combined-Shape">
                <path d="M8.535,0 C5.773,0 4,2.238 4,5 L4,6 L2,6 C0.896,6 0,6.896 0,8 C0,9.104 0.896,10 2,10 L4,10 L4,14 L2,14 C0.896,14 0,14.896 0,16 C0,17.104 0.896,18 2,18 L4,18 L4,22 L2,22 C0.896,22 0,22.896 0,24 C0,25.104 0.896,26 2,26 L4,26 L4,30 L2,30 C0.896,30 0,30.896 0,32 C0,33.104 0.896,34 2,34 L4,34 L4,38 L2,38 C0.896,38 0,38.895 0,40 C0,41.104 0.896,42 2,42 L4,42 L4,43 C4,45.762 5.773,48 8.535,48 L42.535,48 C45.295,48 48,45.762 48,43 L48,5 C48,2.238 45.295,0 42.535,0 L8.535,0 L8.535,0 Z M42.535,45 L11.535,45 C10.43,45 10,44.104 10,43 L10,5 C10,3.896 10.43,3 11.535,3 L42.535,3 C43.639,3 45,3.896 45,5 L45,43 C45,44.104 43.639,45 42.535,45 L42.535,45 Z M21.9479091,21.5010909 L29.5505455,31.3704545 L23.1628182,39.9090909 L27.8629091,39.9090909 L32.0311818,34.2174545 L36.1675455,39.9090909 L41,39.9090909 L34.6134545,31.3704545 L40.0391818,24.0266364 L35.5069091,24.0266364 L32.0642727,28.7905455 L26.4494545,21.0720909 C28.1914545,20.8286364 29.5328182,20.1349091 30.47,18.9873636 C31.4071818,17.8398182 31.8763636,16.4169091 31.8763636,14.7174545 C31.8763636,13.3938182 31.6329091,12.303 31.1483636,11.4414545 C30.6626364,10.5810909 30.0114545,9.89681818 29.196,9.38981818 C28.3793636,8.88281818 27.4469091,8.52354545 26.3998182,8.31436364 C25.3515455,8.10518182 24.2654545,8 23.1403636,8 L15,8 L15,30.9968262 L19,30.9968262 L19,21.5010909 L21.9479091,21.5010909 L21.9479091,21.5010909 Z M22.5106998,11.64 C23.0401543,11.64 23.5861543,11.6742727 24.1486998,11.7392727 C24.7112453,11.8054545 25.2241543,11.9437272 25.6874271,12.152909 C26.1506998,12.3632727 26.526518,12.6776363 26.812518,13.096 C27.0996998,13.5155454 27.2426998,14.0674545 27.226163,14.7505454 C27.2426998,15.5246363 27.0878816,16.1238181 26.7794271,16.554 C26.4709725,16.9853636 26.0679725,17.3032727 25.5716089,17.5136363 C25.0752453,17.724 24.5292453,17.8551818 23.9336089,17.9107272 C23.3379725,17.9662727 22.7423362,17.9934545 22.1466998,17.9934545 L19,17.9272727 L19,11.5738182 L22.5106998,11.64 L22.5106998,11.64 Z"></path>
            </g>
        </g>
    </g>
</svg>