<?xml version="1.0" encoding="UTF-8" standalone="no"?>
<svg width="48px" height="48px" viewBox="0 0 48 48" version="1.1" xmlns="http://www.w3.org/2000/svg" xmlns:xlink="http://www.w3.org/1999/xlink">
    <!-- Generator: sketchtool 39.1 (31720) - http://www.bohemiancoding.com/sketch -->
    <title>2FDBFC7E-E56E-4E64-A1A8-40EEABFC19BA</title>
    <desc>Created with sketchtool.</desc>
    <defs></defs>
    <g id="Symbols" stroke="none" stroke-width="1" fill="none" fill-rule="evenodd">
        <g id="tools_nor_dark_48x48" fill="#666666">
            <path d="M48,43 C48,45.762 45.762,48 43,48 L5,48 C2.238,48 0,45.762 0,43 L0,27 L18,27 L18,30 C18,31.65 19.35,33 21,33 L27,33 C28.65,33 30,31.65 30,30 L30,27 L48,27 L48,43 Z M5,11 C2.238,11 1.11022302e-16,13.238 1.11022302e-16,16 L1.11022302e-16,24 L18,24 L18,22 C18,20.35 19.35,19 21,19 L27,19 C28.65,19 30,20.35 30,22 L30,24 L48,24 L48,16 C48,13.238 45.762,11 43,11 L5,11 Z M21,30 L27,30 L27,22 L21,22 L21,30 Z M37,9 C37,5 33.866,2 30,2 L18,2 C14.134,2 11,5 11,9 L15,9 C15,7 16.343,6 18,6 L30,6 C31.657,6 33,7 33,9 L37,9 L37,9 Z" id="tools"></path>
        </g>
    </g>
</svg>