<?xml version="1.0" encoding="UTF-8" standalone="no"?>
<svg width="48px" height="48px" viewBox="0 0 48 48" version="1.1" xmlns="http://www.w3.org/2000/svg" xmlns:xlink="http://www.w3.org/1999/xlink">
    <!-- Generator: sketchtool 39.1 (31720) - http://www.bohemiancoding.com/sketch -->
    <title>D405E98A-8C2B-4B03-B35B-88CCC551558B</title>
    <desc>Created with sketchtool.</desc>
    <defs></defs>
    <g id="Symbols" stroke="none" stroke-width="1" fill="none" fill-rule="evenodd">
        <g id="worklist_act_48x48" fill="#007D8A">
            <path d="M29.879,4 C29.324,1.718 26.902,0 24,0 C21.098,0 18.676,1.718 18.121,4 L8,4 C5.239,4 3,6.238 3,9 L3,43 C3,45.762 5.239,48 8,48 L40,48 C42.761,48 45,45.762 45,43 L45,9 C45,6.238 42.761,4 40,4 L29.879,4 Z M31.728,33.352 L23.414,41.667 C22.633,42.448 21.367,42.45 20.586,41.669 L16.272,37.354 C15.49,36.573 15.49,35.307 16.272,34.525 C17.054,33.747 18.32,33.745 19.1,34.528 L21.999,37.426 L28.9,30.525 C29.683,29.743 30.948,29.745 31.729,30.526 C32.51,31.307 32.512,32.573 31.728,33.352 L31.728,33.352 Z M31.728,20.353 L23.414,28.667 C22.633,29.448 21.367,29.45 20.586,28.669 L16.272,24.354 C15.49,23.573 15.49,22.307 16.272,21.525 C17.054,20.747 18.32,20.745 19.1,21.528 L21.999,24.427 L28.9,17.525 C29.683,16.743 30.948,16.745 31.729,17.526 C32.51,18.307 32.512,19.573 31.728,20.353 L31.728,20.353 Z M42,12 L6,12 L6,9 C6,7.896 6.896,7 8,7 L40,7 C41.104,7 42,7.896 42,9 L42,12 L42,12 Z" id="Fill-2"></path>
        </g>
    </g>
</svg>